<svg id="Layer_1" data-name="Layer 1" xmlns="http://www.w3.org/2000/svg" viewBox="0 0 2000 2000"><defs><style>.cls-1{fill:#fff;}</style></defs><title>SVG</title><path class="cls-1" d="M1754.69,532.36c0-.84-.07-1.66-.12-2.49a72.11,72.11,0,0,0-1.15-9.19s0-.1,0-.15a74.32,74.32,0,0,0-2.5-9.08c-.26-.76-.53-1.51-.81-2.26a73.15,73.15,0,0,0-3.64-8.26c-.07-.15-.13-.3-.2-.44a74.77,74.77,0,0,0-5.06-8c-.47-.65-.94-1.28-1.43-1.92a73.73,73.73,0,0,0-6.34-7.38l-353.8-353.79a71.08,71.08,0,0,0-7.36-6.33c-.65-.5-1.3-1-2-1.46a74,74,0,0,0-8-5l-.53-.25a74,74,0,0,0-8.16-3.6c-.77-.28-1.52-.56-2.3-.82a73.52,73.52,0,0,0-9.06-2.5l-.14,0a74.5,74.5,0,0,0-9.21-1.14c-.82-.06-1.63-.1-2.46-.12s-1.64-.13-2.47-.13H602.74c-102.83,0-187.18,79.81-194.83,180.71a142.61,142.61,0,0,1,25.15,17.12l20-6.83a139.39,139.39,0,0,1,100.18,3.75c.47-26.46,22.91-48.67,49.46-48.67h652.19V412.26c0,107.85,87.74,195.58,195.58,195.58h158.22V1696.46c0,26.83-22.67,49.5-49.5,49.5H602.74c-26.83,0-49.5-22.67-49.5-49.5V1553.91a395.13,395.13,0,0,1-25.39-56.19L407.16,1164.39v532.07c0,107.84,87.73,195.58,195.58,195.58h956.49c107.85,0,195.58-87.74,195.58-195.58V534.8C1754.81,534,1754.72,533.17,1754.69,532.36Z"/><path class="cls-1" d="M1081,398.22H751.38a73,73,0,1,0,0,146.08H1081a73,73,0,0,0,0-146.08Z"/><path class="cls-1" d="M1399,806.69H760l.77,2.55a140.37,140.37,0,0,1-33,138.71,72.57,72.57,0,0,0,25.9,4.82H1399a73,73,0,0,0,0-146.08Z"/><path class="cls-1" d="M676.73,1568.72c12.27,12.53,26,24.19,40.37,31.91a194.22,194.22,0,0,0,14.84-54.17c4.31-33.19-3.47-78.7-13.48-110.63L428.33,509,466,496.13,578.22,864.8a49.74,49.74,0,0,0,62.07,33.1q.81-.24,1.59-.51a49.75,49.75,0,0,0,31.51-61.56L546.19,418a49.75,49.75,0,0,0-63.64-32.59l-84.17,28.69C380.66,366,351,352.4,300.91,369.46c-51.46,17.54-66.2,47.53-48.66,99l361.45,998.2C627.46,1504.64,648.47,1539.83,676.73,1568.72Z"/><polygon class="cls-1" points="1273.53 1273.52 1308.91 1288.18 1347.21 1288.18 1374.29 1315.26 1409.68 1329.91 1424.33 1365.3 1451.42 1392.38 1451.42 1430.68 1466.07 1466.06 1451.42 1501.45 1451.42 1539.75 1424.33 1566.83 1409.68 1602.21 1374.29 1616.87 1347.21 1643.95 1308.91 1643.95 1273.53 1658.61 1238.14 1643.95 1199.85 1643.95 1172.76 1616.87 1137.38 1602.21 1122.72 1566.83 1095.64 1539.75 1095.64 1501.45 1080.98 1466.06 1095.64 1430.68 1095.64 1392.38 1122.72 1365.3 1137.38 1329.91 1172.76 1315.26 1199.85 1288.18 1238.14 1288.18 1273.53 1273.52"/></svg>