<svg 
 xmlns="http://www.w3.org/2000/svg"
 xmlns:xlink="http://www.w3.org/1999/xlink"
 width="21px" height="21px">
<path fill-rule="evenodd"  fill="rgb(88, 190, 203)"
 d="M8.874,14.537 C7.319,14.537 5.989,13.985 4.884,12.880 C3.779,11.775 3.226,10.445 3.226,8.890 C3.226,7.336 3.779,6.006 4.884,4.901 C5.989,3.796 7.319,3.244 8.874,3.244 C10.428,3.244 11.758,3.796 12.863,4.901 C13.968,6.006 14.521,7.336 14.521,8.890 C14.521,10.445 13.968,11.775 12.863,12.880 C11.758,13.985 10.428,14.537 8.874,14.537 ZM20.508,18.243 L16.185,13.920 C17.227,12.415 17.748,10.739 17.748,8.890 C17.748,7.689 17.514,6.540 17.048,5.443 C16.582,4.346 15.952,3.401 15.157,2.607 C14.363,1.813 13.417,1.182 12.321,0.716 C11.224,0.249 10.076,0.016 8.874,0.016 C7.672,0.016 6.523,0.249 5.426,0.716 C4.330,1.182 3.384,1.813 2.590,2.607 C1.796,3.401 1.166,4.346 0.699,5.443 C0.233,6.540 -0.000,7.689 -0.000,8.890 C-0.000,10.092 0.233,11.241 0.699,12.338 C1.166,13.434 1.796,14.380 2.590,15.174 C3.384,15.968 4.330,16.598 5.426,17.065 C6.523,17.531 7.672,17.764 8.874,17.764 C10.722,17.764 12.399,17.243 13.903,16.201 L18.227,20.512 C18.529,20.831 18.907,20.991 19.361,20.991 C19.798,20.991 20.176,20.831 20.496,20.512 C20.815,20.193 20.974,19.815 20.974,19.378 C20.974,18.932 20.819,18.554 20.508,18.243 L20.508,18.243 Z"/>
</svg>