<?xml version="1.0" encoding="utf-8"?>
<!-- Generator: Adobe Illustrator 22.1.0, SVG Export Plug-In . SVG Version: 6.00 Build 0)  -->
<svg version="1.1" id="Layer_1" xmlns="http://www.w3.org/2000/svg" xmlns:xlink="http://www.w3.org/1999/xlink" x="0px" y="0px"
	 viewBox="0 0 225.1 101.3" style="enable-background:new 0 0 225.1 101.3;" xml:space="preserve">

<g>
	<g>
		<g>
			<g>
				
					<linearGradient id="SVGID_1_" gradientUnits="userSpaceOnUse" x1="89.1358" y1="17.3158" x2="89.1358" y2="109.601" gradientTransform="matrix(1 8.200000e-03 -8.200000e-03 1 20.3599 -49.339)">
					<stop  offset="0" style="stop-color:#00C6FF"/>
					<stop  offset="1" style="stop-color:#0072FF"/>
				</linearGradient>
				<path  style="fill:#FFFFFF;" class="st0" d="M48,34.6c-0.4,0-0.8-0.1-1.2-0.4c-0.9-0.7-1.1-1.9-0.4-2.8c1.1-1.4,2.2-2.7,3.4-3.7
					c0.1-0.1,0.2-0.2,0.3-0.3l2.8-2.6c0,0,0,0,0,0l-1.8,0c-2.7,0-4.8-2.1-5-4.8l-0.3-6c-0.1-1.4,0.4-2.7,1.4-3.7
					c0.9-1,2.3-1.6,3.6-1.5L61,8.7c2.2,0,4,1.6,4.3,3.7l0.1,0.4l8.5-8.1C76.7,2,81.8,0,85.7,0l46.1,0.4c3.9,0,9,2.2,11.7,4.9l9,8.8
					l0.2-1c0.4-2.1,2.2-3.7,4.4-3.6l10.3,0.1c1.4,0,2.7,0.6,3.6,1.6c0.9,1,1.4,2.4,1.3,3.7l-0.4,6c-0.2,2.6-2.4,4.7-5.1,4.7l-1.8,0
					c-0.2,0-0.4,0-0.6-0.1c-0.1,0-0.1,0-0.2,0l2.8,2.7c0.1,0.1,0.2,0.2,0.3,0.3c1,0.9,1.9,1.9,2.8,3c0.7,0.9,0.5,2.1-0.4,2.8
					c-0.9,0.7-2.1,0.5-2.8-0.4c-0.7-1-1.5-1.8-2.4-2.5c-0.1-0.1-0.2-0.2-0.3-0.3c0,0-0.1-0.1-0.1-0.1l-4.5-4.4
					c-0.4-0.4-0.7-1.1-0.6-1.7c0.1-1.1,1-3.6,5.8-3.5c0.2,0,0.4,0,0.6,0.1l1.4,0c0.6,0,1-0.4,1-1l0.4-6c0-0.4-0.1-0.6-0.3-0.7
					c-0.1-0.1-0.3-0.3-0.7-0.3L157,13.5c-0.2,0-0.3,0.1-0.4,0.3l-0.4,2.1c0,0.1-0.1,0.2-0.1,0.4c-0.2,0.5-0.3,1.2-0.3,2
					c0,0.8-0.5,1.5-1.3,1.8c-0.7,0.3-1.6,0.1-2.2-0.4L140.7,8.2c-2-2.1-6-3.7-8.9-3.8L85.7,4c-2.9,0-6.9,1.6-9,3.6L65.4,18.3
					c-0.6,0.5-1.4,0.7-2.1,0.4c-0.7-0.3-1.2-1-1.3-1.7c0-0.6-0.1-1.1-0.3-1.5c0-0.1-0.1-0.2-0.1-0.4L61.4,13c0-0.2-0.2-0.3-0.4-0.3
					l-10.3-0.1c-0.4,0-0.6,0.2-0.7,0.3c-0.1,0.1-0.3,0.4-0.3,0.7l0.3,6.1c0,0.5,0.5,1,1,1l1.4,0c0.2-0.1,0.4-0.1,0.6-0.1
					c3.5,0,4.9,1.3,5.4,2.4c0.4,0.8,0.2,1.7-0.4,2.3l-5.1,4.9c0,0,0,0,0,0.1l-0.1,0.1c-0.1,0.1-0.1,0.1-0.2,0.2
					c-1,0.9-2,1.9-2.9,3.1C49.2,34.3,48.6,34.6,48,34.6z"/>
			</g>
			<g>
				
					<linearGradient id="SVGID_2_" gradientUnits="userSpaceOnUse" x1="89.1367" y1="17.3088" x2="89.1367" y2="109.5974" gradientTransform="matrix(1 8.200000e-03 -8.200000e-03 1 20.3599 -49.339)">
					<stop  offset="0" style="stop-color:#00C6FF"/>
					<stop  offset="1" style="stop-color:#0072FF"/>
				</linearGradient>
				<path style="fill:#FFFFFF;"  class="st1" d="M162.4,101.3l-8.6-0.1c-4.9,0-8.9-3.9-9-8.6L71.9,92c-0.2,4.7-4.3,8.5-9.2,8.5l-8.6-0.1c-5,0-9.1-4.1-9-9
					l0-3.4c-2.4-0.5-4.2-2.7-4.2-5.2l0.1-8.4c0-1.1,0.9-2,2-2c1.1,0,2,0.9,2,2L45,82.9c0,0.7,0.6,1.3,1.3,1.3l0.9,0c1.1,0,2,0.9,2,2
					l0,5.3c0,2.7,2.2,4.9,5,4.9l8.6,0.1c2.8,0,5.1-2.2,5.1-4.8l0-1.7c0-1.1,0.9-2,2-2l76.9,0.6c1.1,0,2,0.9,2,2l0,1.7
					c0,2.7,2.2,4.9,5,4.9l8.6,0.1c2.8,0,5.1-2.2,5.1-4.8l0-5.3c0-1.1,0.9-2,2-2l0.4,0c0.9,0,1.7-0.7,1.7-1.6l0-6.1
					c0-0.1,0-0.2,0-0.3c0.1-0.7,0.1-1.2,0.1-1.7c0-1.1,0.9-2,2-2c1.1,0,2,0.9,2,2c0,0.6-0.1,1.3-0.2,2.1l0,6c0,2.6-1.8,4.7-4.1,5.4
					l0,3.5C171.5,97.4,167.4,101.4,162.4,101.3z"/>
			</g>
		</g>
		<g>
			
				<linearGradient id="SVGID_3_" gradientUnits="userSpaceOnUse" x1="-12.1793" y1="17.3184" x2="-12.1793" y2="109.59" gradientTransform="matrix(1 8.200000e-03 -8.200000e-03 1 20.3599 -49.339)">
				<stop  offset="0" style="stop-color:#00C6FF"/>
				<stop  offset="1" style="stop-color:#0072FF"/>
			</linearGradient>
			<path style="fill:#FFFFFF;" class="st2" d="M14.7,49.2l0,5.8L0,54.9l0.2-23.1l6.4,0.1L6.5,49.2L14.7,49.2z"/>
			
				<linearGradient id="SVGID_4_" gradientUnits="userSpaceOnUse" x1="6.1799" y1="17.3185" x2="6.1799" y2="109.6006" gradientTransform="matrix(1 8.200000e-03 -8.200000e-03 1 20.3599 -49.339)">
				<stop  offset="0" style="stop-color:#00C6FF"/>
				<stop  offset="1" style="stop-color:#0072FF"/>
			</linearGradient>
			<path style="fill:#FFFFFF;" class="st3" d="M35.4,46.2c0,0.5-0.1,1.1-0.1,1.6l-13.2-0.1c0.4,2,1.7,3.1,3.6,3.1c1.4,0,2.6-0.6,3.2-1.6l6.1,0
				c-1.3,4.1-4.9,6.6-9.4,6.5c-5.6,0-9.6-4.1-9.6-9.6c0-5.5,4.2-9.4,9.7-9.4C31.5,36.8,35.5,40.9,35.4,46.2L35.4,46.2z M22.2,44.3
				l7.2,0.1c-0.5-1.8-1.8-2.8-3.6-2.8C24,41.5,22.7,42.5,22.2,44.3z"/>
			
				<linearGradient id="SVGID_5_" gradientUnits="userSpaceOnUse" x1="27.6144" y1="17.3179" x2="27.6144" y2="109.6003" gradientTransform="matrix(1 8.200000e-03 -8.200000e-03 1 20.3599 -49.339)">
				<stop  offset="0" style="stop-color:#00C6FF"/>
				<stop  offset="1" style="stop-color:#0072FF"/>
			</linearGradient>
			<path style="fill:#FFFFFF;" class="st4" d="M57.2,37.6l-0.1,17.8l-4.7,0l-0.5-1.3c-1.5,1.2-3.3,1.8-5.4,1.8c-5.4,0-9.3-4-9.3-9.6c0-5.5,4-9.4,9.4-9.4
				c2.1,0,4,0.7,5.4,2l0.6-1.4L57.2,37.6z M51.3,46.4c0-2.3-1.7-4.1-4-4.1c-2.3,0-4,1.7-4,4c0,2.3,1.7,4.1,4,4.1
				C49.6,50.5,51.3,48.8,51.3,46.4z"/>
			
				<linearGradient id="SVGID_6_" gradientUnits="userSpaceOnUse" x1="48.3322" y1="17.3176" x2="48.3322" y2="109.5997" gradientTransform="matrix(1 8.200000e-03 -8.200000e-03 1 20.3599 -49.339)">
				<stop  offset="0" style="stop-color:#00C6FF"/>
				<stop  offset="1" style="stop-color:#0072FF"/>
			</linearGradient>
			<path style="fill:#FFFFFF;" class="st5" d="M67.8,56.1C63,56,60,53.4,60,49.6l5.9,0c0,1.3,0.9,1.9,2.1,1.9c0.9,0,1.8-0.4,1.8-1.4c0-1-1.3-1.3-3-1.6
				c-2.8-0.5-6.4-1.3-6.4-5.6c0-3.6,3.1-5.8,7.6-5.8c4.5,0,7.4,2.5,7.5,6.1l-5.7,0c0-1.1-0.8-1.7-1.9-1.7c-1,0-1.6,0.5-1.7,1.3
				c0,1,1.4,1.3,3,1.6c2.8,0.5,6.5,1.1,6.5,5.7C75.7,53.7,72.6,56.1,67.8,56.1L67.8,56.1z"/>
			
				<linearGradient id="SVGID_7_" gradientUnits="userSpaceOnUse" x1="62.1244" y1="17.3174" x2="62.1244" y2="109.5996" gradientTransform="matrix(1 8.200000e-03 -8.200000e-03 1 20.3599 -49.339)">
				<stop  offset="0" style="stop-color:#00C6FF"/>
				<stop  offset="1" style="stop-color:#0072FF"/>
			</linearGradient>
			<path style="fill:#FFFFFF;" class="st6" d="M78.7,37.8l6.1,0.1l-0.1,17.8l-6.1-0.1L78.7,37.8z M78.8,30.3l6,0l0,5.2l-6,0L78.8,30.3z"/>
			
				<linearGradient id="SVGID_8_" gradientUnits="userSpaceOnUse" x1="77.8399" y1="17.3167" x2="77.8399" y2="109.5997" gradientTransform="matrix(1 8.200000e-03 -8.200000e-03 1 20.3599 -49.339)">
				<stop  offset="0" style="stop-color:#00C6FF"/>
				<stop  offset="1" style="stop-color:#0072FF"/>
			</linearGradient>
			<path style="fill:#FFFFFF;" class="st7" d="M106.2,44.9l-0.1,10.9l-6.1-0.1l0.1-10c0-2.1-0.8-3.1-2.3-3.1c-1.9,0-3,1.3-3,3.6l-0.1,9.5l-6.1-0.1
				l0.1-17.8l4.3,0l0.8,1.8c1.3-1.5,3.3-2.3,5.6-2.3C103.6,37.5,106.3,40.4,106.2,44.9z"/>
			
				<linearGradient id="SVGID_9_" gradientUnits="userSpaceOnUse" x1="98.9918" y1="17.3173" x2="98.9918" y2="109.5991" gradientTransform="matrix(1 8.200000e-03 -8.200000e-03 1 20.3599 -49.339)">
				<stop  offset="0" style="stop-color:#00C6FF"/>
				<stop  offset="1" style="stop-color:#0072FF"/>
			</linearGradient>
			<path style="fill:#FFFFFF;" class="st8" d="M128.4,38.2L128.2,54c0,5.6-3.7,9-9.6,9c-5,0-8.6-2.6-9.3-6.8l5.9,0c0.4,1.2,1.9,1.8,3.4,1.9
				c2.1,0,3.7-1.3,3.7-3.4l0-0.5c-1.3,0.8-2.9,1.3-4.7,1.3c-5.1,0-8.9-3.9-8.8-9c0-5.1,3.9-8.9,9-8.9c2.2,0,4.1,0.8,5.6,2.1l0.8-1.5
				L128.4,38.2z M118.7,50.4c2.2,0,3.8-1.6,3.8-3.9c0-2.2-1.5-3.9-3.8-3.9c-2.2,0-3.8,1.6-3.8,3.8C115,48.7,116.5,50.4,118.7,50.4
				L118.7,50.4z"/>
			
				<linearGradient id="SVGID_10_" gradientUnits="userSpaceOnUse" x1="123.273" y1="17.3161" x2="123.273" y2="109.5879" gradientTransform="matrix(1 8.200000e-03 -8.200000e-03 1 20.3599 -49.339)">
				<stop  offset="0" style="stop-color:#00C6FF"/>
				<stop  offset="1" style="stop-color:#0072FF"/>
			</linearGradient>
			<path style="fill:#FFFFFF;" class="st9" d="M153.5,44.6c-0.1,6.7-5,11.5-12,11.5l-9.3-0.1l0.2-23.1l9.3,0.1C148.7,33.1,153.5,37.9,153.5,44.6z
				 M147,44.6c0-3.4-2.2-5.7-5.6-5.7l-2.7,0l-0.1,11.4l2.7,0C144.7,50.3,147,48,147,44.6z"/>
			
				<linearGradient id="SVGID_11_" gradientUnits="userSpaceOnUse" x1="145.5514" y1="17.3167" x2="145.5514" y2="109.5983" gradientTransform="matrix(1 8.200000e-03 -8.200000e-03 1 20.3599 -49.339)">
				<stop  offset="0" style="stop-color:#00C6FF"/>
				<stop  offset="1" style="stop-color:#0072FF"/>
			</linearGradient>
			<path style="fill:#FFFFFF;" class="st10" d="M174.8,47.3c0,0.5-0.1,1.1-0.1,1.6l-13.2-0.1c0.4,2,1.7,3.1,3.6,3.1c1.4,0,2.6-0.6,3.2-1.6l6.1,0
				c-1.3,4.1-4.9,6.6-9.4,6.5c-5.6,0-9.6-4.1-9.6-9.6c0-5.5,4.2-9.4,9.7-9.4C170.9,37.9,174.9,42.1,174.8,47.3L174.8,47.3z
				 M161.6,45.4l7.2,0.1c-0.5-1.8-1.8-2.8-3.6-2.8C163.4,42.7,162.1,43.6,161.6,45.4z"/>
			
				<linearGradient id="SVGID_12_" gradientUnits="userSpaceOnUse" x1="166.9865" y1="17.3161" x2="166.9865" y2="109.598" gradientTransform="matrix(1 8.200000e-03 -8.200000e-03 1 20.3599 -49.339)">
				<stop  offset="0" style="stop-color:#00C6FF"/>
				<stop  offset="1" style="stop-color:#0072FF"/>
			</linearGradient>
			<path style="fill:#FFFFFF;" class="st11" d="M196.6,38.7l-0.1,17.8l-4.7,0l-0.5-1.3c-1.5,1.2-3.3,1.8-5.4,1.8c-5.4,0-9.3-4-9.3-9.6c0-5.5,4-9.4,9.4-9.4
				c2.1,0,4,0.7,5.4,2l0.6-1.4L196.6,38.7z M190.7,47.6c0-2.3-1.7-4.1-4-4.1c-2.3,0-4,1.7-4,4c0,2.3,1.7,4.1,4,4.1
				C189,51.6,190.7,49.9,190.7,47.6z"/>
			
				<linearGradient id="SVGID_13_" gradientUnits="userSpaceOnUse" x1="183.8962" y1="17.3154" x2="183.8962" y2="109.5979" gradientTransform="matrix(1 8.200000e-03 -8.200000e-03 1 20.3599 -49.339)">
				<stop  offset="0" style="stop-color:#00C6FF"/>
				<stop  offset="1" style="stop-color:#0072FF"/>
			</linearGradient>
			<path style="fill:#FFFFFF;" class="st12" d="M200.5,32.3l6.1,0.1l-0.2,24.2l-6.1-0.1L200.5,32.3z"/>
			
				<linearGradient id="SVGID_14_" gradientUnits="userSpaceOnUse" x1="197.6898" y1="17.3153" x2="197.6898" y2="109.5974" gradientTransform="matrix(1 8.200000e-03 -8.200000e-03 1 20.3599 -49.339)">
				<stop  offset="0" style="stop-color:#00C6FF"/>
				<stop  offset="1" style="stop-color:#0072FF"/>
			</linearGradient>
			<path style="fill:#FFFFFF;" class="st13" d="M217.2,57.3c-4.9,0-7.8-2.6-7.8-6.5l5.9,0c0,1.3,0.9,1.9,2.1,1.9c0.9,0,1.8-0.4,1.8-1.4c0-1-1.3-1.3-3-1.6
				c-2.8-0.5-6.4-1.3-6.4-5.6c0-3.6,3.1-5.8,7.6-5.8c4.5,0,7.4,2.5,7.5,6.1l-5.7,0c0-1.1-0.8-1.7-1.9-1.7c-1,0-1.6,0.5-1.7,1.3
				c0,1,1.4,1.3,3,1.6c2.8,0.5,6.5,1.1,6.5,5.7C225.1,54.9,221.9,57.3,217.2,57.3L217.2,57.3z"/>
		</g>
		<linearGradient id="SVGID_15_" gradientUnits="userSpaceOnUse" x1="88.8731" y1="-2.2327" x2="88.8731" y2="90.0522">
			<stop  offset="0" style="stop-color:#00C6FF"/>
			<stop  offset="1" style="stop-color:#0072FF"/>
		</linearGradient>
		<path style="fill:#FFFFFF;" class="st14" d="M66.4,23.6L79,15.8c3.6-2.3,7.6-3.7,11.8-4.4l20.5-3.1L89,8.1c-3.7,0-7.2,1.3-10,3.8L66.4,23.6z"/>
	</g>
	<g>
		<linearGradient id="SVGID_16_" gradientUnits="userSpaceOnUse" x1="25.5961" y1="-2.233" x2="25.5961" y2="90.0526">
			<stop  offset="0" style="stop-color:#00C6FF"/>
			<stop  offset="1" style="stop-color:#0072FF"/>
		</linearGradient>
		<path style="fill:#FFFFFF;" class="st15" d="M25.4,70l-1.8,0l0.1-6.7l3.9,0l0,1.4l-2.2,0l0,1.3l2,0l0,1.4l-2,0L25.4,70z"/>
		<linearGradient id="SVGID_17_" gradientUnits="userSpaceOnUse" x1="31.3466" y1="-2.2332" x2="31.3466" y2="90.0525">
			<stop  offset="0" style="stop-color:#00C6FF"/>
			<stop  offset="1" style="stop-color:#0072FF"/>
		</linearGradient>
		<path style="fill:#FFFFFF;" class="st16" d="M32.2,70.1l-1.8,0l0-5.2l1.8,0L32.2,70.1z M30.4,63.6c0-0.3,0.1-0.5,0.2-0.6c0.1-0.1,0.4-0.2,0.7-0.2
			c0.3,0,0.6,0.1,0.7,0.2c0.2,0.1,0.2,0.3,0.2,0.6c0,0.5-0.3,0.8-1,0.8C30.7,64.4,30.4,64.2,30.4,63.6z"/>
		<linearGradient id="SVGID_18_" gradientUnits="userSpaceOnUse" x1="37.8143" y1="-2.2336" x2="37.8143" y2="90.0527">
			<stop  offset="0" style="stop-color:#00C6FF"/>
			<stop  offset="1" style="stop-color:#0072FF"/>
		</linearGradient>
		<path style="fill:#FFFFFF;" class="st17" d="M38.5,70.1l0-2.8c0-0.3,0-0.6-0.1-0.8c-0.1-0.2-0.3-0.3-0.5-0.3c-0.3,0-0.5,0.1-0.7,0.4s-0.2,0.6-0.2,1.2
			l0,2.3l-1.8,0l0-5.2l1.3,0l0.2,0.6l0.1,0c0.2-0.2,0.4-0.4,0.6-0.5c0.3-0.1,0.6-0.2,0.9-0.2c0.6,0,1,0.2,1.3,0.5
			c0.3,0.3,0.5,0.8,0.5,1.4l0,3.4L38.5,70.1z"/>
		<linearGradient id="SVGID_19_" gradientUnits="userSpaceOnUse" x1="45.7043" y1="-2.233" x2="45.7043" y2="90.0524">
			<stop  offset="0" style="stop-color:#00C6FF"/>
			<stop  offset="1" style="stop-color:#0072FF"/>
		</linearGradient>
		<path style="fill:#FFFFFF;" class="st18" d="M45,70.3c-0.4,0-0.7-0.1-1-0.3c-0.3-0.2-0.5-0.5-0.6-0.9c-0.1-0.4-0.2-0.9-0.2-1.4c0-0.8,0.2-1.5,0.5-2
			c0.3-0.5,0.8-0.7,1.4-0.7c0.3,0,0.5,0.1,0.8,0.2c0.2,0.1,0.4,0.3,0.6,0.6l0,0c-0.1-0.4-0.1-0.8-0.1-1.2l0-1.4l1.8,0l-0.1,7.1
			l-1.3,0l-0.4-0.7l-0.1,0C46.1,70,45.6,70.3,45,70.3z M45.7,68.9c0.3,0,0.5-0.1,0.6-0.3c0.1-0.2,0.2-0.5,0.2-0.8l0-0.1
			c0-0.5-0.1-0.8-0.2-1c-0.1-0.2-0.3-0.3-0.6-0.3c-0.2,0-0.4,0.1-0.5,0.3c-0.1,0.2-0.2,0.5-0.2,0.9c0,0.4,0.1,0.7,0.2,0.9
			C45.3,68.8,45.5,68.9,45.7,68.9z"/>
		<linearGradient id="SVGID_20_" gradientUnits="userSpaceOnUse" x1="58.0741" y1="-2.2331" x2="58.0741" y2="90.0524">
			<stop  offset="0" style="stop-color:#00C6FF"/>
			<stop  offset="1" style="stop-color:#0072FF"/>
		</linearGradient>
		<path style="fill:#FFFFFF;" class="st19" d="M58.1,66.1l1.2-2.5l1.9,0l-2.2,4l0,2.6l-1.8,0l0-2.5L55,63.6l2,0L58.1,66.1z"/>
		<linearGradient id="SVGID_21_" gradientUnits="userSpaceOnUse" x1="65.9665" y1="-2.2322" x2="65.9665" y2="90.0525">
			<stop  offset="0" style="stop-color:#00C6FF"/>
			<stop  offset="1" style="stop-color:#0072FF"/>
		</linearGradient>
		<path style="fill:#FFFFFF;" class="st20" d="M68.5,67.8c0,0.8-0.2,1.5-0.7,2c-0.5,0.5-1.1,0.7-1.9,0.7c-0.8,0-1.4-0.3-1.9-0.7c-0.5-0.5-0.7-1.1-0.7-2
			c0-0.8,0.2-1.5,0.7-2c0.5-0.5,1.1-0.7,1.9-0.7c0.5,0,1,0.1,1.3,0.3c0.4,0.2,0.7,0.5,0.9,0.9C68.4,66.8,68.5,67.3,68.5,67.8z
			 M65.2,67.8c0,0.4,0.1,0.8,0.2,1c0.1,0.2,0.3,0.4,0.6,0.4c0.3,0,0.5-0.1,0.6-0.3c0.1-0.2,0.2-0.6,0.2-1c0-0.4-0.1-0.8-0.2-1
			c-0.1-0.2-0.3-0.3-0.6-0.3c-0.3,0-0.5,0.1-0.6,0.3C65.3,67,65.2,67.3,65.2,67.8z"/>
		<linearGradient id="SVGID_22_" gradientUnits="userSpaceOnUse" x1="73.9308" y1="-2.2334" x2="73.9308" y2="90.0522">
			<stop  offset="0" style="stop-color:#00C6FF"/>
			<stop  offset="1" style="stop-color:#0072FF"/>
		</linearGradient>
		<path style="fill:#FFFFFF;" class="st21" d="M75.1,70.4l-0.2-0.6l-0.1,0c-0.2,0.2-0.4,0.4-0.6,0.5c-0.3,0.1-0.6,0.2-0.9,0.2c-0.6,0-1-0.2-1.3-0.5
			c-0.3-0.3-0.5-0.8-0.5-1.4l0-3.4l1.8,0l0,2.8c0,0.3,0,0.6,0.1,0.8c0.1,0.2,0.3,0.3,0.5,0.3c0.3,0,0.5-0.1,0.7-0.4
			c0.1-0.2,0.2-0.6,0.2-1.2l0-2.3l1.8,0l0,5.2L75.1,70.4z"/>
		<linearGradient id="SVGID_23_" gradientUnits="userSpaceOnUse" x1="81.3576" y1="-2.2333" x2="81.3576" y2="90.0526">
			<stop  offset="0" style="stop-color:#00C6FF"/>
			<stop  offset="1" style="stop-color:#0072FF"/>
		</linearGradient>
		<path style="fill:#FFFFFF;" class="st22" d="M82.7,65.3c0.2,0,0.3,0,0.4,0l0.1,0L83,67c-0.1,0-0.3-0.1-0.6-0.1c-0.4,0-0.7,0.1-0.8,0.3
			c-0.2,0.2-0.3,0.4-0.3,0.8l0,2.5l-1.8,0l0-5.2l1.3,0l0.3,0.8l0.1,0c0.2-0.3,0.4-0.5,0.6-0.7C82.1,65.3,82.4,65.2,82.7,65.3z"/>
		<linearGradient id="SVGID_24_" gradientUnits="userSpaceOnUse" x1="92.5725" y1="-2.233" x2="92.5725" y2="90.0527">
			<stop  offset="0" style="stop-color:#00C6FF"/>
			<stop  offset="1" style="stop-color:#0072FF"/>
		</linearGradient>
		<path style="fill:#FFFFFF;" class="st23" d="M95,66.1c0,0.7-0.2,1.3-0.7,1.7c-0.4,0.4-1.1,0.6-1.9,0.6l-0.5,0l0,2.2l-1.8,0l0.1-6.7l2.3,0
			c0.8,0,1.5,0.2,1.9,0.6C94.8,64.9,95,65.4,95,66.1z M92,66.9l0.3,0c0.3,0,0.5-0.1,0.6-0.2c0.2-0.2,0.2-0.4,0.2-0.6
			c0-0.4-0.2-0.7-0.7-0.7l-0.5,0L92,66.9z"/>
		<linearGradient id="SVGID_25_" gradientUnits="userSpaceOnUse" x1="100.0776" y1="-2.2323" x2="100.0776" y2="90.0522">
			<stop  offset="0" style="stop-color:#00C6FF"/>
			<stop  offset="1" style="stop-color:#0072FF"/>
		</linearGradient>
		<path style="fill:#FFFFFF;" class="st24" d="M100.3,70.7c-0.9,0-1.5-0.2-2-0.7c-0.5-0.5-0.7-1.1-0.7-2c0-0.9,0.2-1.5,0.7-2c0.4-0.5,1.1-0.7,1.9-0.7
			c0.8,0,1.4,0.2,1.8,0.6c0.4,0.4,0.6,1,0.6,1.8l0,0.8l-3.2,0c0,0.3,0.1,0.5,0.3,0.7c0.2,0.2,0.5,0.2,0.8,0.3c0.3,0,0.6,0,0.9-0.1
			c0.3-0.1,0.5-0.2,0.9-0.3l0,1.3c-0.3,0.1-0.6,0.2-0.9,0.3C101,70.7,100.7,70.7,100.3,70.7z M100.2,66.6c-0.2,0-0.4,0.1-0.5,0.2
			c-0.1,0.1-0.2,0.3-0.3,0.6l1.5,0c0-0.2-0.1-0.4-0.2-0.6C100.6,66.7,100.4,66.6,100.2,66.6z"/>
		<linearGradient id="SVGID_26_" gradientUnits="userSpaceOnUse" x1="107.2651" y1="-2.2341" x2="107.2651" y2="90.0525">
			<stop  offset="0" style="stop-color:#00C6FF"/>
			<stop  offset="1" style="stop-color:#0072FF"/>
		</linearGradient>
		<path style="fill:#FFFFFF;" class="st25" d="M108.6,65.5c0.2,0,0.3,0,0.4,0l0.1,0l-0.2,1.7c-0.1,0-0.3-0.1-0.6-0.1c-0.4,0-0.7,0.1-0.8,0.3
			c-0.2,0.2-0.3,0.4-0.3,0.8l0,2.5l-1.8,0l0-5.2l1.3,0l0.3,0.8l0.1,0c0.2-0.3,0.4-0.5,0.6-0.7C108,65.5,108.3,65.5,108.6,65.5z"/>
		<linearGradient id="SVGID_27_" gradientUnits="userSpaceOnUse" x1="113.2288" y1="-2.233" x2="113.2288" y2="90.0528">
			<stop  offset="0" style="stop-color:#00C6FF"/>
			<stop  offset="1" style="stop-color:#0072FF"/>
		</linearGradient>
		<path style="fill:#FFFFFF;" class="st26" d="M114.8,66.9l-1.1,0l0,3.8l-1.8,0l0-3.8l-0.7,0l0-0.9l0.7-0.4l0-0.1c0-0.7,0.1-1.2,0.4-1.5
			c0.3-0.3,0.7-0.4,1.3-0.4c0.2,0,0.5,0,0.7,0.1c0.2,0,0.5,0.1,0.7,0.2l-0.4,1.1c-0.2-0.1-0.4-0.1-0.6-0.1c-0.1,0-0.2,0-0.3,0.1
			c-0.1,0.1-0.1,0.2-0.1,0.4l0,0.1l1.1,0L114.8,66.9z"/>
		<linearGradient id="SVGID_28_" gradientUnits="userSpaceOnUse" x1="119.6594" y1="-2.2337" x2="119.6594" y2="90.0527">
			<stop  offset="0" style="stop-color:#00C6FF"/>
			<stop  offset="1" style="stop-color:#0072FF"/>
		</linearGradient>
		<path style="fill:#FFFFFF;" class="st27" d="M119.9,70.9c-0.9,0-1.5-0.2-2-0.7c-0.5-0.5-0.7-1.1-0.7-2c0-0.9,0.2-1.5,0.7-2c0.4-0.5,1.1-0.7,1.9-0.7
			c0.8,0,1.4,0.2,1.8,0.6c0.4,0.4,0.6,1,0.6,1.8l0,0.8l-3.2,0c0,0.3,0.1,0.5,0.3,0.7c0.2,0.2,0.5,0.2,0.8,0.3c0.3,0,0.6,0,0.9-0.1
			c0.3-0.1,0.5-0.2,0.9-0.3l0,1.3c-0.3,0.1-0.6,0.2-0.9,0.3C120.6,70.9,120.3,70.9,119.9,70.9z M119.8,66.8c-0.2,0-0.4,0.1-0.5,0.2
			c-0.1,0.1-0.2,0.3-0.3,0.6l1.5,0c0-0.2-0.1-0.4-0.2-0.6C120.2,66.8,120,66.8,119.8,66.8z"/>
		<linearGradient id="SVGID_29_" gradientUnits="userSpaceOnUse" x1="127.006" y1="-2.2338" x2="127.006" y2="90.0528">
			<stop  offset="0" style="stop-color:#00C6FF"/>
			<stop  offset="1" style="stop-color:#0072FF"/>
		</linearGradient>
		<path style="fill:#FFFFFF;" class="st28" d="M127.3,71c-0.8,0-1.5-0.2-1.9-0.7c-0.4-0.5-0.6-1.1-0.6-2c0-0.9,0.2-1.5,0.7-2c0.5-0.5,1.1-0.7,2-0.7
			c0.6,0,1.2,0.1,1.7,0.4l-0.5,1.3c-0.2-0.1-0.4-0.2-0.6-0.2c-0.2-0.1-0.4-0.1-0.6-0.1c-0.3,0-0.5,0.1-0.7,0.3
			c-0.2,0.2-0.2,0.5-0.2,0.9c0,0.8,0.3,1.2,0.9,1.2c0.5,0,1-0.1,1.5-0.4l0,1.4C128.5,70.8,128,71,127.3,71z"/>
		<linearGradient id="SVGID_30_" gradientUnits="userSpaceOnUse" x1="133.4163" y1="-2.2327" x2="133.4163" y2="90.0526">
			<stop  offset="0" style="stop-color:#00C6FF"/>
			<stop  offset="1" style="stop-color:#0072FF"/>
		</linearGradient>
		<path style="fill:#FFFFFF;" class="st29" d="M134.4,69.6c0.2,0,0.5-0.1,0.9-0.2l0,1.3c-0.2,0.1-0.5,0.2-0.7,0.2c-0.2,0-0.5,0.1-0.8,0.1
			c-0.6,0-1-0.2-1.3-0.4c-0.3-0.3-0.4-0.7-0.4-1.4l0-2.1l-0.6,0l0-0.7l0.8-0.6l0.5-1.1l1.2,0l0,1l1.3,0l0,1.3l-1.3,0l0,2
			C133.9,69.4,134.1,69.6,134.4,69.6z"/>
		<linearGradient id="SVGID_31_" gradientUnits="userSpaceOnUse" x1="144.8695" y1="-2.2329" x2="144.8695" y2="90.0526">
			<stop  offset="0" style="stop-color:#00C6FF"/>
			<stop  offset="1" style="stop-color:#0072FF"/>
		</linearGradient>
		<path style="fill:#FFFFFF;" class="st30" d="M145.4,65.7c-0.4,0-0.8,0.2-1,0.5c-0.2,0.3-0.4,0.8-0.4,1.4c0,1.3,0.5,1.9,1.4,1.9c0.3,0,0.6,0,0.9-0.1
			c0.3-0.1,0.6-0.2,0.8-0.3l0,1.5c-0.6,0.2-1.2,0.4-1.9,0.4c-1,0-1.8-0.3-2.3-0.9c-0.5-0.6-0.8-1.4-0.8-2.5c0-0.7,0.1-1.3,0.4-1.8
			c0.3-0.5,0.6-0.9,1.1-1.2c0.5-0.3,1.1-0.4,1.7-0.4c0.7,0,1.4,0.2,2.1,0.5l-0.6,1.4c-0.2-0.1-0.5-0.2-0.7-0.3
			C146,65.8,145.7,65.7,145.4,65.7z"/>
		<linearGradient id="SVGID_32_" gradientUnits="userSpaceOnUse" x1="152.4207" y1="-2.2334" x2="152.4207" y2="90.0526">
			<stop  offset="0" style="stop-color:#00C6FF"/>
			<stop  offset="1" style="stop-color:#0072FF"/>
		</linearGradient>
		<path style="fill:#FFFFFF;" class="st31" d="M153.6,71.1l-0.3-0.7l0,0c-0.2,0.3-0.5,0.5-0.7,0.6c-0.2,0.1-0.6,0.2-1,0.2c-0.5,0-0.9-0.2-1.1-0.4
			c-0.3-0.3-0.4-0.7-0.4-1.2c0-0.5,0.2-1,0.6-1.2c0.4-0.3,0.9-0.4,1.7-0.4l0.9,0l0-0.1c0-0.4-0.2-0.6-0.6-0.6
			c-0.4,0-0.9,0.1-1.4,0.4l-0.5-1.2c0.6-0.3,1.4-0.5,2.3-0.4c0.7,0,1.2,0.2,1.5,0.5c0.4,0.3,0.5,0.8,0.5,1.4l0,3.4L153.6,71.1z
			 M152.3,69.9c0.2,0,0.4-0.1,0.6-0.2c0.2-0.1,0.2-0.3,0.2-0.5l0-0.4l-0.4,0c-0.6,0-0.9,0.2-0.9,0.6C151.8,69.7,152,69.9,152.3,69.9
			z"/>
		<linearGradient id="SVGID_33_" gradientUnits="userSpaceOnUse" x1="159.7625" y1="-2.2334" x2="159.7625" y2="90.0527">
			<stop  offset="0" style="stop-color:#00C6FF"/>
			<stop  offset="1" style="stop-color:#0072FF"/>
		</linearGradient>
		<path style="fill:#FFFFFF;" class="st32" d="M161.1,65.9c0.2,0,0.3,0,0.4,0l0.1,0l-0.2,1.7c-0.1,0-0.3-0.1-0.6-0.1c-0.4,0-0.7,0.1-0.8,0.3
			c-0.2,0.2-0.3,0.4-0.3,0.8l0,2.5l-1.8,0l0-5.2l1.3,0l0.3,0.8l0.1,0c0.2-0.3,0.4-0.5,0.6-0.7C160.5,66,160.8,65.9,161.1,65.9z"/>
		<linearGradient id="SVGID_34_" gradientUnits="userSpaceOnUse" x1="170.7295" y1="-2.2326" x2="170.7295" y2="90.0524">
			<stop  offset="0" style="stop-color:#00C6FF"/>
			<stop  offset="1" style="stop-color:#0072FF"/>
		</linearGradient>
		<path style="fill:#FFFFFF;" class="st33" d="M168.5,71.2l0.1-6.7l1.8,0l0,5.2l2.6,0l0,1.5L168.5,71.2z"/>
		<linearGradient id="SVGID_35_" gradientUnits="userSpaceOnUse" x1="178.0181" y1="-2.2333" x2="178.0181" y2="90.0526">
			<stop  offset="0" style="stop-color:#00C6FF"/>
			<stop  offset="1" style="stop-color:#0072FF"/>
		</linearGradient>
		<path style="fill:#FFFFFF;" class="st34" d="M178.2,71.4c-0.9,0-1.5-0.2-2-0.7c-0.5-0.5-0.7-1.1-0.7-2c0-0.9,0.2-1.5,0.7-2c0.4-0.5,1.1-0.7,1.9-0.7
			c0.8,0,1.4,0.2,1.8,0.6c0.4,0.4,0.6,1,0.6,1.8l0,0.8l-3.2,0c0,0.3,0.1,0.5,0.3,0.7c0.2,0.2,0.5,0.2,0.8,0.3c0.3,0,0.6,0,0.9-0.1
			c0.3-0.1,0.5-0.2,0.9-0.3l0,1.3c-0.3,0.1-0.6,0.2-0.9,0.3C179,71.4,178.6,71.4,178.2,71.4z M178.1,67.2c-0.2,0-0.4,0.1-0.5,0.2
			c-0.1,0.1-0.2,0.3-0.3,0.6l1.5,0c0-0.2-0.1-0.4-0.2-0.6C178.6,67.3,178.4,67.2,178.1,67.2z"/>
		<linearGradient id="SVGID_36_" gradientUnits="userSpaceOnUse" x1="185.5367" y1="-2.2336" x2="185.5367" y2="90.0526">
			<stop  offset="0" style="stop-color:#00C6FF"/>
			<stop  offset="1" style="stop-color:#0072FF"/>
		</linearGradient>
		<path style="fill:#FFFFFF;" class="st35" d="M186.7,71.4l-0.3-0.7h0c-0.2,0.3-0.5,0.5-0.7,0.6c-0.2,0.1-0.6,0.2-1,0.2c-0.5,0-0.9-0.2-1.1-0.4
			c-0.3-0.3-0.4-0.7-0.4-1.2c0-0.5,0.2-1,0.6-1.2c0.4-0.3,0.9-0.4,1.7-0.4l0.9,0l0-0.1c0-0.4-0.2-0.6-0.6-0.6
			c-0.4,0-0.9,0.1-1.4,0.4l-0.5-1.2c0.6-0.3,1.4-0.5,2.3-0.4c0.7,0,1.2,0.2,1.5,0.5c0.4,0.3,0.5,0.8,0.5,1.4l0,3.4L186.7,71.4z
			 M185.4,70.2c0.2,0,0.4-0.1,0.6-0.2c0.2-0.1,0.2-0.3,0.2-0.5l0-0.4l-0.4,0c-0.6,0-0.9,0.2-0.9,0.6C184.9,70,185.1,70.2,185.4,70.2
			z"/>
		<linearGradient id="SVGID_37_" gradientUnits="userSpaceOnUse" x1="192.9959" y1="-2.2323" x2="192.9959" y2="90.0528">
			<stop  offset="0" style="stop-color:#00C6FF"/>
			<stop  offset="1" style="stop-color:#0072FF"/>
		</linearGradient>
		<path style="fill:#FFFFFF;" class="st36" d="M195,69.8c0,0.6-0.2,1-0.6,1.2c-0.4,0.3-0.9,0.4-1.6,0.4c-0.4,0-0.7,0-1-0.1c-0.3,0-0.6-0.1-0.9-0.2l0-1.4
			c0.3,0.1,0.6,0.2,0.9,0.3c0.3,0.1,0.6,0.1,0.9,0.1c0.4,0,0.6-0.1,0.6-0.3c0-0.1-0.1-0.2-0.2-0.2c-0.1-0.1-0.4-0.2-0.9-0.4
			c-0.5-0.2-0.8-0.4-1-0.7c-0.2-0.2-0.3-0.6-0.3-0.9c0-0.5,0.2-0.9,0.6-1.1c0.4-0.3,0.9-0.4,1.6-0.4c0.3,0,0.7,0,1,0.1
			c0.3,0.1,0.6,0.2,0.9,0.3l-0.5,1.1c-0.2-0.1-0.5-0.2-0.7-0.3c-0.3-0.1-0.5-0.1-0.6-0.1c-0.3,0-0.4,0.1-0.4,0.2
			c0,0.1,0,0.2,0.2,0.2c0.1,0.1,0.4,0.2,0.9,0.4c0.4,0.2,0.6,0.3,0.8,0.4c0.2,0.1,0.3,0.3,0.4,0.5C195,69.3,195,69.6,195,69.8z"/>
		<linearGradient id="SVGID_38_" gradientUnits="userSpaceOnUse" x1="200.1534" y1="-2.2331" x2="200.1534" y2="90.0525">
			<stop  offset="0" style="stop-color:#00C6FF"/>
			<stop  offset="1" style="stop-color:#0072FF"/>
		</linearGradient>
		<path style="fill:#FFFFFF;" class="st37" d="M200.4,71.6c-0.9,0-1.5-0.2-2-0.7c-0.5-0.5-0.7-1.1-0.7-2c0-0.9,0.2-1.5,0.7-2c0.4-0.5,1.1-0.7,1.9-0.7
			c0.8,0,1.4,0.2,1.8,0.6c0.4,0.4,0.6,1,0.6,1.8l0,0.8l-3.2,0c0,0.3,0.1,0.5,0.3,0.7c0.2,0.2,0.5,0.2,0.8,0.3c0.3,0,0.6,0,0.9-0.1
			c0.3-0.1,0.5-0.2,0.9-0.3l0,1.3c-0.3,0.1-0.6,0.2-0.9,0.3C201.1,71.5,200.8,71.6,200.4,71.6z M200.3,67.4c-0.2,0-0.4,0.1-0.5,0.2
			c-0.1,0.1-0.2,0.3-0.3,0.6l1.5,0c0-0.2-0.1-0.4-0.2-0.6C200.7,67.5,200.5,67.4,200.3,67.4z"/>
	</g>
</g>
</svg>
