<svg version="1.1" id="Layer_1" xmlns="http://www.w3.org/2000/svg" xmlns:xlink="http://www.w3.org/1999/xlink" x="0px" y="0px" viewBox="0 0 113.8 113.8" style="enable-background:new 0 0 113.8 113.8;" xml:space="preserve">
<style type="text/css">
	.st0{fill:url(#SVGID_1_);}
	.st1{fill:#FFFFFF;}
	.st4{fill:none;stroke:#FFFFFF;stroke-width:1.62;stroke-linecap:round;stroke-linejoin:round;stroke-miterlimit:10;}
	.st5{fill:none;stroke:#FFFFFF;stroke-linecap:round;stroke-linejoin:round;stroke-miterlimit:10;}
	.st6{clip-path:url(#SVGID_4_);}

	svg {

        max-width: 600px;
        margin: 0 auto;
		background: rgba(0,0,0,.92);
	}

	@keyframes grow {

		100% {

			transform: scale(1);
		}
	}

	.sub_one {

        transform-origin: 56.5px 57px;
        transform: scale(0);
        animation: grow 1.2s 1s cubic-bezier(.74,.02,.36,.97) forwards;
	}

	.sub_two {
 
        transform-origin: 56.5px 57px;
        transform: scale(0);
        animation: grow 1.2s 1.1s cubic-bezier(.74,.02,.36,.97) forwards;
	}

	.sub_three {

        transform-origin: 56.5px 57px;
        transform: scale(0);
        animation: grow 1.2s 1.2s cubic-bezier(.74,.02,.36,.97) forwards;
	}

	@keyframes slide_one {

		100% {

            opacity: 1;
			transform: translate(-10px, 0px) scale(3.5);
		}
	}

	@keyframes slide_three {

		0% {

            opacity: 1;
			transform: translate(-10px, 0px) scale(3.5);
		}

		100% {

            opacity: 1;
			transform: translate(0px, 0px) scale(1);
		}
	}

	@keyframes slide_five {

		0% {

            opacity: 1;
			transform: translate(0px, 0px) scale(1);
		}

		100% {

            opacity: 1;
			transform: translate(-6px, 0px) scale(1.6);
		}
	}

	@keyframes offset_two {

		100% {

			stroke-dashoffset: 20;
		}
	}

	.feat circle:nth-of-type(1) {

        opacity: 0;
        stroke-dasharray: 20;
        stroke-dashoffset: 0;
		transform-origin: 39px 61.5px;
		transform: translate(0px, 50px) scale(0);
		animation: slide_one 1s .2s cubic-bezier(.74,.02,.36,.97) forwards, slide_three 1s 2s cubic-bezier(.74,.02,.36,.97) forwards, slide_five 1s 4.25s cubic-bezier(.74,.02,.36,.97) forwards, offset_two .5s 6s linear forwards;
	}

	@keyframes slide_two {

		100% {

            opacity: 1;
			transform: translate(10px, 0px) scale(3.5);
		}
	}

	@keyframes slide_four {

		0% {

            opacity: 1;
			transform: translate(10px, 0px) scale(3.5);
		}

		100% {

            opacity: 1;
			transform: translate(0px, 0px) scale(1);
		}
	}

	@keyframes slide_six {

		0% {

            opacity: 1;
			transform: translate(0px, 0px) scale(1);
		}

		100% {

            opacity: 1;
			transform: translate(6px, 0px) scale(1.6);
		}
	}

	.feat circle:nth-of-type(2) {

        opacity: 0;
        stroke-dasharray: 20;
        stroke-dashoffset: 0;
		transform-origin: 72.5px 61.5px;
		transform: translate(0px, 50px) scale(0);
		animation: slide_two 1s .4s cubic-bezier(.74,.02,.36,.97) forwards, slide_four 1s 2s cubic-bezier(.74,.02,.36,.97) forwards, slide_six 1s 4.25s cubic-bezier(.74,.02,.36,.97) forwards, offset_two .5s 6s linear forwards;
	}

	@keyframes offset {

		100% {

			stroke-dashoffset: 30;
		}
	}

	.sub_one polyline,
	.sub_two polyline,
	.sub_three polyline {

        stroke-dasharray: 30;
        stroke-dashoffset: 0;
        animation: offset 1s 3s cubic-bezier(.74,.02,.36,.97) forwards;
	}

	@keyframes rotate {

		100% {

			transform: rotate(360deg) scale(.7);
		}
	}

	.sub {

        transform-origin: 56.5px 57px;
        animation: rotate 1s 3s cubic-bezier(.74,.02,.36,.97) forwards;
	}

	@keyframes grow_two {

		100% {

			transform: scale(1.42);
		}
	}

	.main {

        transform-origin: 56.5px 57px;
        animation: grow_two 1s 4s cubic-bezier(.74,.02,.36,.97) forwards;
	}

	@keyframes slide_seven {

		100% {

			transform: translate(-65px, -130px);
		}
	}

	.sub_four path {

		animation: slide_seven 1s 5s cubic-bezier(.74,.02,.36,.97) forwards;
	}

	@keyframes fade_in {

		100% {

			opacity: 1;
		}
	}

	.txt path:nth-of-type(1) {

		opacity: 0;
		animation: fade_in 1s 6.5s linear forwards;
	}

	.txt path:nth-of-type(2) {

		opacity: 0;
		animation: fade_in 1s 6.6s linear forwards;
	}

	.txt path:nth-of-type(3) {

		opacity: 0;
		animation: fade_in 1s 6.7s linear forwards;
	}

	.txt path:nth-of-type(4) {

		opacity: 0;
		animation: fade_in 1s 6.8s linear forwards;
	}

	.txt path:nth-of-type(5) {

		opacity: 0;
		animation: fade_in 1s 6.9s linear forwards;
	}

	.txt path:nth-of-type(6) {

		opacity: 0;
		animation: fade_in 1s 7s linear forwards;
	}

	.txt path:nth-of-type(7) {

		opacity: 0;
		animation: fade_in 1s 7.1s linear forwards;
	}

	.txt path:nth-of-type(8) {

		opacity: 0;
		animation: fade_in 1s 7.2s linear forwards;
	}

	.txt path:nth-of-type(9) {

		opacity: 0;
		animation: fade_in 1s 7.3s linear forwards;
	}

	.txt path:nth-of-type(10) {

		opacity: 0;
		animation: fade_in 1s 7.4s linear forwards;
	}
		
	.txt path:nth-of-type(11) {

		opacity: 0;
		animation: fade_in 1s 7.5s linear forwards;
	}

	.txt path:nth-of-type(12) {

		opacity: 0;
		animation: fade_in 1s 7.6s linear forwards;
	}
</style>
<g>
	<linearGradient id="SVGID_1_" gradientUnits="userSpaceOnUse" x1="133.6357" y1="-38.7438" x2="-8.2588" y2="138.1024">
		<stop  offset="0" style="stop-color:#00C6FF"/>
		<stop  offset="1" style="stop-color:#0072FF"/>
	</linearGradient>
	<g>
	    <g>
		    <defs>
			    <path id="SVGID_3_" d="M81.2,113.8H32.6C14.6,113.8,0,99.2,0,81.2V32.6C0,14.6,14.6,0,32.6,0h48.6c18,0,32.6,14.6,32.6,32.6v48.6C113.8,99.2,99.2,113.8,81.2,113.8z"/>
	        </defs>
	        <clipPath id="SVGID_4_">
		        <use xlink:href="#SVGID_3_"  style="overflow:visible;"/>
	        </clipPath>
	    </g>
	    <g class="st6 sub_four">
		    <path class="st0" d="M285.8,151.7L135.7,286.3c-4.9,4.4-12.5,4-16.9-0.9L30.5,187c-4.4-4.9-4-12.5,0.9-16.9L181.6,35.4c4.9-4.4,12.5-4,16.9,0.9l88.2,98.4C291.2,139.7,290.8,147.3,285.8,151.7z"/>
	    </g>
    </g>
</g>
<g class="sub">
<g class="main">
<g class="sub_three" opacity=".33">
    <path fill="#FFFFFF" d="M31.7,53.5c-0.2,0-0.3,0-0.5-0.2c-0.4-0.3-0.4-0.8-0.2-1.1c0.4-0.6,0.9-1.1,1.3-1.5c0,0,0.1-0.1,0.1-0.1      l1.1-1.1c0,0,0,0,0,0h-0.7c-1.1,0-1.9-0.8-2-1.9l-0.2-2.4c0-0.5,0.2-1.1,0.5-1.5c0.4-0.4,0.9-0.6,1.4-0.6h4.1      c0.9,0,1.6,0.6,1.7,1.5l0,0.2l3.4-3.2c1.1-1.1,3.1-1.9,4.7-1.9h18.3c1.6,0,3.6,0.8,4.7,1.9l3.6,3.5l0.1-0.4      c0.1-0.8,0.9-1.5,1.7-1.5h4.1c0.5,0,1.1,0.2,1.4,0.6c0.4,0.4,0.6,0.9,0.5,1.5l-0.2,2.4c-0.1,1.1-0.9,1.9-2,1.9h-0.7      c-0.1,0-0.2,0-0.2,0c0,0,0,0-0.1,0l1.1,1.1c0,0,0.1,0.1,0.1,0.1c0.4,0.3,0.8,0.7,1.1,1.2c0.3,0.3,0.2,0.8-0.1,1.1      c-0.3,0.3-0.8,0.2-1.1-0.1c-0.3-0.4-0.6-0.7-0.9-1c0,0-0.1-0.1-0.1-0.1c0,0,0,0,0,0L76.1,50c-0.2-0.2-0.3-0.4-0.2-0.7      c0-0.4,0.4-1.4,2.3-1.4c0.1,0,0.2,0,0.2,0h0.5c0.2,0,0.4-0.2,0.4-0.4l0.2-2.4c0-0.1-0.1-0.2-0.1-0.3c0,0-0.1-0.1-0.3-0.1H75      c-0.1,0-0.1,0.1-0.1,0.1l-0.1,0.9c0,0,0,0.1,0,0.1c-0.1,0.2-0.1,0.5-0.1,0.8c0,0.3-0.2,0.6-0.5,0.7c-0.3,0.1-0.6,0.1-0.9-0.2      l-4.7-4.5c-0.8-0.8-2.4-1.5-3.6-1.5H46.6c-1.1,0-2.7,0.7-3.6,1.5L38.6,47c-0.2,0.2-0.6,0.3-0.8,0.2c-0.3-0.1-0.5-0.4-0.5-0.7      c0-0.2-0.1-0.4-0.1-0.6c0,0,0-0.1,0-0.1L37,44.9c0-0.1-0.1-0.1-0.1-0.1h-4.1c-0.1,0-0.2,0.1-0.3,0.1c0,0-0.1,0.1-0.1,0.3      l0.2,2.4c0,0.2,0.2,0.4,0.4,0.4h0.5c0.1,0,0.1,0,0.2,0c1.4,0,1.9,0.5,2.2,1c0.1,0.3,0.1,0.7-0.2,0.9l-2,2c0,0,0,0,0,0l0,0.1      c0,0-0.1,0.1-0.1,0.1c-0.4,0.3-0.8,0.8-1.1,1.3C32.2,53.4,32,53.5,31.7,53.5z"/>
    <path fill="#FFFFFF" d="M39,49.1l5-3.2c1.4-0.9,3-1.5,4.7-1.8l8.2-1.3h-8.9c-1.5,0-2.9,0.6-3.9,1.6L39,49.1z"/>
    <path fill="#FFFFFF" d="M77.3,75.2h-3.4c-1.9,0-3.5-1.5-3.6-3.4h-29c-0.1,1.9-1.7,3.4-3.6,3.4h-3.4c-2,0-3.6-1.6-3.6-3.5v-1.4      c-1-0.2-1.7-1-1.7-2.1v-3.4c0-0.4,0.4-0.8,0.8-0.8c0.4,0,0.8,0.4,0.8,0.8v3.4c0,0.3,0.2,0.5,0.5,0.5h0.4c0.4,0,0.8,0.4,0.8,0.8      v2.1c0,1.1,0.9,1.9,2,1.9h3.4c1.1,0,2-0.9,2-1.9V71c0-0.4,0.4-0.8,0.8-0.8H71c0.4,0,0.8,0.4,0.8,0.8v0.7c0,1.1,0.9,1.9,2,1.9      h3.4c1.1,0,2-0.9,2-1.9v-2.1c0-0.4,0.4-0.8,0.8-0.8h0.2c0.4,0,0.7-0.3,0.7-0.7v-2.4c0,0,0-0.1,0-0.1c0-0.3,0-0.5,0-0.7      c0-0.4,0.4-0.8,0.8-0.8c0.4,0,0.8,0.4,0.8,0.8c0,0.3,0,0.5-0.1,0.8v2.4c0,1-0.7,1.9-1.6,2.2v1.4C80.9,73.7,79.3,75.2,77.3,75.2z      "/>
    <polyline class="st4" points="29.8,64.6 29.8,55.5 31.8,52.6 "/>
    <polyline class="st4" points="81.7,64.5 81.4,55.5 79.4,52.6 "/>
</g>
<g class="sub_two" opacity=".66">
    <path fill="#FFFFFF" d="M31.7,53.5c-0.2,0-0.3,0-0.5-0.2c-0.4-0.3-0.4-0.8-0.2-1.1c0.4-0.6,0.9-1.1,1.3-1.5c0,0,0.1-0.1,0.1-0.1      l1.1-1.1c0,0,0,0,0,0h-0.7c-1.1,0-1.9-0.8-2-1.9l-0.2-2.4c0-0.5,0.2-1.1,0.5-1.5c0.4-0.4,0.9-0.6,1.4-0.6h4.1      c0.9,0,1.6,0.6,1.7,1.5l0,0.2l3.4-3.2c1.1-1.1,3.1-1.9,4.7-1.9h18.3c1.6,0,3.6,0.8,4.7,1.9l3.6,3.5l0.1-0.4      c0.1-0.8,0.9-1.5,1.7-1.5h4.1c0.5,0,1.1,0.2,1.4,0.6c0.4,0.4,0.6,0.9,0.5,1.5l-0.2,2.4c-0.1,1.1-0.9,1.9-2,1.9h-0.7      c-0.1,0-0.2,0-0.2,0c0,0,0,0-0.1,0l1.1,1.1c0,0,0.1,0.1,0.1,0.1c0.4,0.3,0.8,0.7,1.1,1.2c0.3,0.3,0.2,0.8-0.1,1.1      c-0.3,0.3-0.8,0.2-1.1-0.1c-0.3-0.4-0.6-0.7-0.9-1c0,0-0.1-0.1-0.1-0.1c0,0,0,0,0,0L76.1,50c-0.2-0.2-0.3-0.4-0.2-0.7      c0-0.4,0.4-1.4,2.3-1.4c0.1,0,0.2,0,0.2,0h0.5c0.2,0,0.4-0.2,0.4-0.4l0.2-2.4c0-0.1-0.1-0.2-0.1-0.3c0,0-0.1-0.1-0.3-0.1H75      c-0.1,0-0.1,0.1-0.1,0.1l-0.1,0.9c0,0,0,0.1,0,0.1c-0.1,0.2-0.1,0.5-0.1,0.8c0,0.3-0.2,0.6-0.5,0.7c-0.3,0.1-0.6,0.1-0.9-0.2      l-4.7-4.5c-0.8-0.8-2.4-1.5-3.6-1.5H46.6c-1.1,0-2.7,0.7-3.6,1.5L38.6,47c-0.2,0.2-0.6,0.3-0.8,0.2c-0.3-0.1-0.5-0.4-0.5-0.7      c0-0.2-0.1-0.4-0.1-0.6c0,0,0-0.1,0-0.1L37,44.9c0-0.1-0.1-0.1-0.1-0.1h-4.1c-0.1,0-0.2,0.1-0.3,0.1c0,0-0.1,0.1-0.1,0.3      l0.2,2.4c0,0.2,0.2,0.4,0.4,0.4h0.5c0.1,0,0.1,0,0.2,0c1.4,0,1.9,0.5,2.2,1c0.1,0.3,0.1,0.7-0.2,0.9l-2,2c0,0,0,0,0,0l0,0.1      c0,0-0.1,0.1-0.1,0.1c-0.4,0.3-0.8,0.8-1.1,1.3C32.2,53.4,32,53.5,31.7,53.5z"/>
    <path fill="#FFFFFF" d="M39,49.1l5-3.2c1.4-0.9,3-1.5,4.7-1.8l8.2-1.3h-8.9c-1.5,0-2.9,0.6-3.9,1.6L39,49.1z"/>
    <path fill="#FFFFFF" d="M77.3,75.2h-3.4c-1.9,0-3.5-1.5-3.6-3.4h-29c-0.1,1.9-1.7,3.4-3.6,3.4h-3.4c-2,0-3.6-1.6-3.6-3.5v-1.4      c-1-0.2-1.7-1-1.7-2.1v-3.4c0-0.4,0.4-0.8,0.8-0.8c0.4,0,0.8,0.4,0.8,0.8v3.4c0,0.3,0.2,0.5,0.5,0.5h0.4c0.4,0,0.8,0.4,0.8,0.8      v2.1c0,1.1,0.9,1.9,2,1.9h3.4c1.1,0,2-0.9,2-1.9V71c0-0.4,0.4-0.8,0.8-0.8H71c0.4,0,0.8,0.4,0.8,0.8v0.7c0,1.1,0.9,1.9,2,1.9      h3.4c1.1,0,2-0.9,2-1.9v-2.1c0-0.4,0.4-0.8,0.8-0.8h0.2c0.4,0,0.7-0.3,0.7-0.7v-2.4c0,0,0-0.1,0-0.1c0-0.3,0-0.5,0-0.7      c0-0.4,0.4-0.8,0.8-0.8c0.4,0,0.8,0.4,0.8,0.8c0,0.3,0,0.5-0.1,0.8v2.4c0,1-0.7,1.9-1.6,2.2v1.4C80.9,73.7,79.3,75.2,77.3,75.2z      "/>
    <polyline class="st4" points="29.8,64.6 29.8,55.5 31.8,52.6 "/>
    <polyline class="st4" points="81.7,64.5 81.4,55.5 79.4,52.6 "/>
</g>
<g class="sub_one">
    <path class="st1" d="M31.7,53.5c-0.2,0-0.3,0-0.5-0.2c-0.4-0.3-0.4-0.8-0.2-1.1c0.4-0.6,0.9-1.1,1.3-1.5c0,0,0.1-0.1,0.1-0.1      l1.1-1.1c0,0,0,0,0,0h-0.7c-1.1,0-1.9-0.8-2-1.9l-0.2-2.4c0-0.5,0.2-1.1,0.5-1.5c0.4-0.4,0.9-0.6,1.4-0.6h4.1      c0.9,0,1.6,0.6,1.7,1.5l0,0.2l3.4-3.2c1.1-1.1,3.1-1.9,4.7-1.9h18.3c1.6,0,3.6,0.8,4.7,1.9l3.6,3.5l0.1-0.4      c0.1-0.8,0.9-1.5,1.7-1.5h4.1c0.5,0,1.1,0.2,1.4,0.6c0.4,0.4,0.6,0.9,0.5,1.5l-0.2,2.4c-0.1,1.1-0.9,1.9-2,1.9h-0.7      c-0.1,0-0.2,0-0.2,0c0,0,0,0-0.1,0l1.1,1.1c0,0,0.1,0.1,0.1,0.1c0.4,0.3,0.8,0.7,1.1,1.2c0.3,0.3,0.2,0.8-0.1,1.1      c-0.3,0.3-0.8,0.2-1.1-0.1c-0.3-0.4-0.6-0.7-0.9-1c0,0-0.1-0.1-0.1-0.1c0,0,0,0,0,0L76.1,50c-0.2-0.2-0.3-0.4-0.2-0.7      c0-0.4,0.4-1.4,2.3-1.4c0.1,0,0.2,0,0.2,0h0.5c0.2,0,0.4-0.2,0.4-0.4l0.2-2.4c0-0.1-0.1-0.2-0.1-0.3c0,0-0.1-0.1-0.3-0.1H75      c-0.1,0-0.1,0.1-0.1,0.1l-0.1,0.9c0,0,0,0.1,0,0.1c-0.1,0.2-0.1,0.5-0.1,0.8c0,0.3-0.2,0.6-0.5,0.7c-0.3,0.1-0.6,0.1-0.9-0.2      l-4.7-4.5c-0.8-0.8-2.4-1.5-3.6-1.5H46.6c-1.1,0-2.7,0.7-3.6,1.5L38.6,47c-0.2,0.2-0.6,0.3-0.8,0.2c-0.3-0.1-0.5-0.4-0.5-0.7      c0-0.2-0.1-0.4-0.1-0.6c0,0,0-0.1,0-0.1L37,44.9c0-0.1-0.1-0.1-0.1-0.1h-4.1c-0.1,0-0.2,0.1-0.3,0.1c0,0-0.1,0.1-0.1,0.3      l0.2,2.4c0,0.2,0.2,0.4,0.4,0.4h0.5c0.1,0,0.1,0,0.2,0c1.4,0,1.9,0.5,2.2,1c0.1,0.3,0.1,0.7-0.2,0.9l-2,2c0,0,0,0,0,0l0,0.1      c0,0-0.1,0.1-0.1,0.1c-0.4,0.3-0.8,0.8-1.1,1.3C32.2,53.4,32,53.5,31.7,53.5z"/>
    <path class="st1" d="M39,49.1l5-3.2c1.4-0.9,3-1.5,4.7-1.8l8.2-1.3h-8.9c-1.5,0-2.9,0.6-3.9,1.6L39,49.1z"/>
    <path class="st1" d="M77.3,75.2h-3.4c-1.9,0-3.5-1.5-3.6-3.4h-29c-0.1,1.9-1.7,3.4-3.6,3.4h-3.4c-2,0-3.6-1.6-3.6-3.5v-1.4      c-1-0.2-1.7-1-1.7-2.1v-3.4c0-0.4,0.4-0.8,0.8-0.8c0.4,0,0.8,0.4,0.8,0.8v3.4c0,0.3,0.2,0.5,0.5,0.5h0.4c0.4,0,0.8,0.4,0.8,0.8      v2.1c0,1.1,0.9,1.9,2,1.9h3.4c1.1,0,2-0.9,2-1.9V71c0-0.4,0.4-0.8,0.8-0.8H71c0.4,0,0.8,0.4,0.8,0.8v0.7c0,1.1,0.9,1.9,2,1.9      h3.4c1.1,0,2-0.9,2-1.9v-2.1c0-0.4,0.4-0.8,0.8-0.8h0.2c0.4,0,0.7-0.3,0.7-0.7v-2.4c0,0,0-0.1,0-0.1c0-0.3,0-0.5,0-0.7      c0-0.4,0.4-0.8,0.8-0.8c0.4,0,0.8,0.4,0.8,0.8c0,0.3,0,0.5-0.1,0.8v2.4c0,1-0.7,1.9-1.6,2.2v1.4C80.9,73.7,79.3,75.2,77.3,75.2z      "/>
    <polyline class="st4" points="29.8,64.6 29.8,55.5 31.8,52.6 "/>
    <polyline class="st4" points="81.7,64.5 81.4,55.5 79.4,52.6 "/>
</g>
</g>
<g class="feat">
    <circle class="st5" cx="39" cy="61.5" r="2.5"/>
    <circle class="st5" cx="72.5" cy="61.5" r="2.5"/> 
</g>
</g>
<g class="txt">
	<path class="st1" d="M18.5,59.4v2.3h-5.8v-9.2h2.6v6.9H18.5z"/>
	<path class="st1" d="M26.8,58.1c0,0.2,0,0.4-0.1,0.6h-5.3c0.2,0.8,0.7,1.2,1.4,1.2c0.6,0,1-0.2,1.3-0.7h2.4     C26.1,61,24.7,62,22.9,62c-2.2,0-3.8-1.6-3.8-3.8c0-2.2,1.6-3.8,3.8-3.8C25.2,54.4,26.8,56.1,26.8,58.1L26.8,58.1z M21.5,57.4     h2.9c-0.2-0.7-0.7-1.1-1.5-1.1C22.2,56.3,21.7,56.7,21.5,57.4z"/>
	<path class="st1" d="M35.4,54.7v7.1h-1.9l-0.2-0.5C32.7,61.7,32,62,31.2,62c-2.2,0-3.7-1.6-3.7-3.8c0-2.2,1.5-3.8,3.7-3.8     c0.8,0,1.6,0.3,2.2,0.8l0.2-0.5L35.4,54.7z M33.1,58.2c0-0.9-0.7-1.6-1.6-1.6c-0.9,0-1.6,0.7-1.6,1.6c0,0.9,0.7,1.6,1.6,1.6     C32.4,59.8,33.1,59.1,33.1,58.2z"/>
	<path class="st1" d="M39.7,62c-1.9,0-3.1-1-3.1-2.6h2.3c0,0.5,0.4,0.8,0.8,0.8c0.4,0,0.7-0.2,0.7-0.5c0-0.4-0.5-0.5-1.2-0.6     c-1.1-0.2-2.6-0.5-2.6-2.2c0-1.4,1.2-2.3,3-2.3c1.8,0,3,1,3,2.4h-2.3c0-0.5-0.3-0.7-0.7-0.7c-0.4,0-0.7,0.2-0.7,0.5     c0,0.4,0.5,0.5,1.2,0.6c1.1,0.2,2.6,0.4,2.6,2.2C42.8,61,41.6,62,39.7,62L39.7,62z"/>
	<path class="st1" d="M43.9,54.7h2.4v7.1h-2.4V54.7z M44,51.7h2.4v2.1H44V51.7z"/>
	<path class="st1" d="M54.9,57.4v4.3h-2.4v-4c0-0.8-0.3-1.2-0.9-1.2c-0.8,0-1.2,0.5-1.2,1.4v3.8h-2.4v-7.1h1.7l0.3,0.7     c0.5-0.6,1.3-0.9,2.2-0.9C53.8,54.5,54.9,55.6,54.9,57.4z"/>
	<path class="st1" d="M63.7,54.7V61c0,2.2-1.5,3.6-3.8,3.6c-2,0-3.4-1-3.7-2.7h2.4c0.2,0.5,0.8,0.7,1.4,0.7c0.8,0,1.5-0.5,1.5-1.4     V61c-0.5,0.3-1.2,0.5-1.8,0.5c-2,0-3.5-1.5-3.5-3.6c0-2,1.5-3.6,3.5-3.6c0.9,0,1.6,0.3,2.2,0.8l0.3-0.6L63.7,54.7z M59.9,59.5     c0.9,0,1.5-0.6,1.5-1.5c0-0.9-0.6-1.5-1.5-1.5c-0.9,0-1.5,0.6-1.5,1.5C58.4,58.9,59,59.5,59.9,59.5L59.9,59.5z"/>
	<path class="st1" d="M73.7,57.1c0,2.7-2,4.6-4.7,4.6h-3.7v-9.2H69C71.7,52.6,73.7,54.5,73.7,57.1z M71.1,57.1     c0-1.4-0.9-2.3-2.3-2.3h-1.1v4.5h1.1C70.2,59.4,71.1,58.5,71.1,57.1z"/>
	<path class="st1" d="M82.2,58.1c0,0.2,0,0.4-0.1,0.6h-5.3c0.2,0.8,0.7,1.2,1.4,1.2c0.6,0,1-0.2,1.3-0.7H82     C81.5,61,80.1,62,78.3,62c-2.2,0-3.8-1.6-3.8-3.8c0-2.2,1.6-3.8,3.8-3.8C80.6,54.4,82.2,56.1,82.2,58.1L82.2,58.1z M76.9,57.4     h2.9c-0.2-0.7-0.7-1.1-1.5-1.1C77.6,56.3,77.1,56.7,76.9,57.4z"/>
	<path class="st1" d="M90.8,54.7v7.1h-1.9l-0.2-0.5c-0.6,0.5-1.3,0.7-2.1,0.7c-2.2,0-3.7-1.6-3.7-3.8c0-2.2,1.5-3.8,3.7-3.8     c0.8,0,1.6,0.3,2.2,0.8l0.2-0.5L90.8,54.7z M88.5,58.2c0-0.9-0.7-1.6-1.6-1.6c-0.9,0-1.6,0.7-1.6,1.6c0,0.9,0.7,1.6,1.6,1.6     C87.8,59.8,88.5,59.1,88.5,58.2z"/>
	<path class="st1" d="M92.3,52.1h2.4v9.6h-2.4V52.1z"/>
	<path class="st1" d="M99,62c-1.9,0-3.1-1-3.1-2.6h2.3c0,0.5,0.4,0.8,0.8,0.8c0.4,0,0.7-0.2,0.7-0.5c0-0.4-0.5-0.5-1.2-0.6     c-1.1-0.2-2.6-0.5-2.6-2.2c0-1.4,1.2-2.3,3-2.3c1.8,0,3,1,3,2.4h-2.3c0-0.5-0.3-0.7-0.7-0.7c-0.4,0-0.7,0.2-0.7,0.5     c0,0.4,0.5,0.5,1.2,0.6c1.1,0.2,2.6,0.4,2.6,2.2C102.2,61,100.9,62,99,62L99,62z"/>
</g>
</svg>