<?xml version="1.0" encoding="utf-8"?>
<!-- Generator: Adobe Illustrator 22.1.0, SVG Export Plug-In . SVG Version: 6.00 Build 0)  -->
<svg version="1.1" id="Layer_1" xmlns="http://www.w3.org/2000/svg" xmlns:xlink="http://www.w3.org/1999/xlink" x="0px" y="0px"
	 viewBox="0 0 456.4 181.4" style="enable-background:new 0 0 456.4 181.4;" xml:space="preserve">
<style type="text/css">
	
</style>
<g>
	<g>
		<g>
			<g>
				<path class="st0" d="M97.1,70.5c-1,0-1.5,0-2.6-1c-2-1.5-2-4.1-1-5.6c2-3.1,4.6-5.6,6.6-7.7l0.5-0.5l5.6-5.6l0,0h-3.6
					c-5.6,0-9.7-4.1-10.2-9.7l-1-12.3c0-2.6,1-5.6,2.6-7.7c2-2,4.6-3.1,7.2-3.1h20.9c4.6,0,8.2,3.1,8.7,7.7v1l17.4-16.4
					c5.6-5.6,15.8-9.7,24-9.7h93.5c8.2,0,18.4,4.1,24,9.7l18.4,17.9l0.5-2c0.5-4.1,4.6-7.7,8.7-7.7h20.9c2.6,0,5.6,1,7.2,3.1
					c2,2,3.1,4.6,2.6,7.7l-1,12.3c-0.5,5.6-4.6,9.7-10.2,9.7h-3.6c-0.5,0-1,0-1,0s0,0-0.5,0l5.6,5.6l0.5,0.5c2,1.5,4.1,3.6,5.6,6.1
					c1.5,1.5,1,4.1-0.5,5.6c-1.5,1.5-4.1,1-5.6-0.5c-1.5-2-3.1-3.6-4.6-5.1l-0.5-0.5l0,0l-8.2-9.7c-1-1-1.5-2-1-3.6
					c0-2,2-7.2,11.8-7.2c0.5,0,1,0,1,0h2.6c1,0,2-1,2-2l1-12.3c0-0.5-0.5-1-0.5-1.5c0,0-0.5-0.5-1.5-0.5h-20.9
					c-0.5,0-0.5,0.5-0.5,0.5l-0.5,4.6v0.5c-0.5,1-0.5,2.6-0.5,4.1s-1,3.1-2.6,3.6c-1.5,0.5-3.1,0.5-4.6-1l-24-23
					c-4.1-4.1-12.3-7.7-18.4-7.7h-94c-5.6,0-13.8,3.6-18.4,7.7l-22.5,22.5c-1,1-3.1,1.5-4.1,1c-1.5-0.5-2.6-2-2.6-3.6
					c0-1-0.5-2-0.5-3.1v-0.5l-1-4.6c0-0.5-0.5-0.5-0.5-0.5h-20.9c-0.5,0-1,0.5-1.5,0.5c0,0-0.5,0.5-0.5,1.5l1,12.3c0,1,1,2,2,2h2.6
					c0.5,0,0.5,0,1,0c7.2,0,9.7,2.6,11.2,5.1c0.5,1.5,0.5,3.6-1,4.6l-10.2,10.2l0,0v0.5l-0.5,0.5c-2,1.5-4.1,4.1-5.6,6.6
					C99.6,70,98.6,70.5,97.1,70.5z"/>
			</g>
			<g>
				<path class="st0" d="M330.1,181.4h-17.4c-9.7,0-17.9-7.7-18.4-17.4H146.1c-0.5,9.7-8.7,17.4-18.4,17.4h-17.4
					c-10.2,0-18.4-8.2-18.4-17.9v-7.2c-5.1-1-8.7-5.1-8.7-10.7v-17.4c0-2,2-4.1,4.1-4.1c2,0,4.1,2,4.1,4.1v17.4c0,1.5,1,2.6,2.6,2.6
					h2c2,0,4.1,2,4.1,4.1V163c0,5.6,4.6,9.7,10.2,9.7h17.4c5.6,0,10.2-4.6,10.2-9.7v-3.1c0-2,2-4.1,4.1-4.1h155.8c2,0,4.1,2,4.1,4.1
					v3.6c0,5.6,4.6,9.7,10.2,9.7h17.4c5.6,0,10.2-4.6,10.2-9.7v-10.7c0-2,2-4.1,4.1-4.1h1c2,0,3.6-1.5,3.6-3.6v-12.3v-0.5
					c0-1.5,0-2.6,0-3.6c0-2,2-4.1,4.1-4.1s4.1,2,4.1,4.1c0,1.5,0,2.6-0.5,4.1v12.3c0,5.1-3.6,9.7-8.2,11.2v7.2
					C348.5,173.7,340.3,181.4,330.1,181.4z"/>
			</g>
		</g>
		<g>
			<path class="st0" d="M29.6,100.7v11.8H0v-47h13.3v35.3H29.6z"/>
			<path class="st0" d="M72,94c0,1,0,2-0.5,3.1H44.5c1,4.1,3.6,6.1,7.2,6.1c3.1,0,5.1-1,6.6-3.6h12.3c-2,9.2-9.2,14.3-18.4,14.3
				c-11.2,0-19.4-8.2-19.4-19.4s8.2-19.4,19.4-19.4C63.9,75.1,72,83.8,72,94L72,94z M45,90.4h14.8c-1-3.6-3.6-5.6-7.7-5.6
				C48.5,84.8,46,86.9,45,90.4z"/>
			<path class="st0" d="M116,76.6v36.3h-9.7l-1-2.6c-3.1,2-6.6,3.6-10.7,3.6c-11.2,0-18.9-8.2-18.9-19.4s7.7-19.4,18.9-19.4
				c4.1,0,8.2,1.5,11.2,4.1l1-2.6H116z M104.2,94.5c0-4.6-3.6-8.2-8.2-8.2c-4.6,0-8.2,3.6-8.2,8.2c0,4.6,3.6,8.2,8.2,8.2
				C100.7,102.7,104.2,99.1,104.2,94.5z"/>
			<path class="st0" d="M138,113.9c-9.7,0-15.8-5.1-15.8-13.3h11.8c0,2.6,2,4.1,4.1,4.1c2,0,3.6-1,3.6-2.6c0-2-2.6-2.6-6.1-3.1
				c-5.6-1-13.3-2.6-13.3-11.2c0-7.2,6.1-11.8,15.3-11.8s15.3,5.1,15.3,12.3H141c0-2.6-1.5-3.6-3.6-3.6s-3.6,1-3.6,2.6
				c0,2,2.6,2.6,6.1,3.1c5.6,1,13.3,2,13.3,11.2C153.8,108.8,147.7,113.9,138,113.9L138,113.9z"/>
			<path class="st0" d="M159.4,76.6h12.3v36.3h-12.3V76.6z M159.9,61.3h12.3V72h-12.3V61.3z"/>
			<path class="st0" d="M215.6,90.4v22h-12.3V92c0-4.1-1.5-6.1-4.6-6.1c-4.1,0-6.1,2.6-6.1,7.2v19.4h-12.3V76.1h8.7l1.5,3.6
				c2.6-3.1,6.6-4.6,11.2-4.6C210,75.6,215.6,81.2,215.6,90.4z"/>
			<path class="st0" d="M260.6,76.6v32.2c0,11.2-7.7,18.4-19.4,18.4c-10.2,0-17.4-5.1-18.9-13.8h12.3c1,2.6,4.1,3.6,7.2,3.6
				c4.1,0,7.7-2.6,7.7-7.2v-1c-2.6,1.5-6.1,2.6-9.2,2.6c-10.2,0-17.9-7.7-17.9-18.4c0-10.2,7.7-18.4,17.9-18.4
				c4.6,0,8.2,1.5,11.2,4.1l1.5-3.1L260.6,76.6z M241.2,101.2c4.6,0,7.7-3.1,7.7-7.7s-3.1-7.7-7.7-7.7c-4.6,0-7.7,3.1-7.7,7.7
				S236.6,101.2,241.2,101.2L241.2,101.2z"/>
			<path class="st0" d="M311.7,88.9c0,13.8-10.2,23.5-24,23.5h-18.9v-47h18.9C301.5,65.9,311.7,75.6,311.7,88.9z M298.4,88.9
				c0-7.2-4.6-11.8-11.8-11.8H281v23h5.6C293.8,100.7,298.4,96.1,298.4,88.9z"/>
			<path class="st0" d="M355.1,94c0,1,0,2-0.5,3.1h-27.1c1,4.1,3.6,6.1,7.2,6.1c3.1,0,5.1-1,6.6-3.6h12.8
				c-2.6,9.2-9.7,14.3-18.9,14.3c-11.2,0-19.4-8.2-19.4-19.4s8.2-19.4,19.4-19.4C346.9,75.1,355.1,83.8,355.1,94L355.1,94z
				 M328,90.4h14.8c-1-3.6-3.6-5.6-7.7-5.6C331.6,84.8,329,86.9,328,90.4z"/>
			<path class="st0" d="M399,76.6v36.3h-9.7l-1-2.6c-3.1,2.6-6.6,3.6-10.7,3.6c-11.2,0-18.9-8.2-18.9-19.4s7.7-19.4,18.9-19.4
				c4.1,0,8.2,1.5,11.2,4.1l1-2.6H399z M387.3,94.5c0-4.6-3.6-8.2-8.2-8.2c-4.6,0-8.2,3.6-8.2,8.2c0,4.6,3.6,8.2,8.2,8.2
				C383.7,102.7,387.3,99.1,387.3,94.5z"/>
			<path class="st0" d="M406.7,63.4H419v49.1h-12.3V63.4z"/>
			<path class="st0" d="M440.9,113.9c-9.7,0-15.8-5.1-15.8-13.3h11.8c0,2.6,2,4.1,4.1,4.1s3.6-1,3.6-2.6c0-2-2.6-2.6-6.1-3.1
				c-5.6-1-13.3-2.6-13.3-11.2c0-7.2,6.1-11.8,15.3-11.8c9.2,0,15.3,5.1,15.3,12.3H444c0-2.6-1.5-3.6-3.6-3.6c-2,0-3.6,1-3.6,2.6
				c0,2,2.6,2.6,6.1,3.1c5.6,1,13.3,2,13.3,11.2C457.3,108.8,450.7,113.9,440.9,113.9L440.9,113.9z"/>
		</g>
		<path class="st0" d="M134.4,48l25.5-16.4c7.2-4.6,15.3-7.7,24-9.2l41.9-6.6h-45.5c-7.7,0-14.8,3.1-19.9,8.2L134.4,48z"/>
	</g>
</g>
</svg>
