<svg version="1.1" id="Layer_1" xmlns="http://www.w3.org/2000/svg" xmlns:xlink="http://www.w3.org/1999/xlink" x="0px" y="0px" viewBox="0 0 2820.5 1121.8" style="enable-background:new 0 0 2820.5 1121.8;" xml:space="preserve">
<style type="text/css">
	.st0{fill:transparent;stroke:#fff;stroke-width:6px;}

	svg {

        max-width: 700px;
        margin: 0 auto;
	}

	@keyframes offset {

		40% {

			stroke-dashoffset: 0;
		}

		100% {

			stroke-dashoffset: 0;
		}
	}

	@keyframes fill {

		30% {

			fill: transparent;
			stroke: #fff;
		}

		60% {

			fill: #fff;
			stroke: transparent;
		}

		100% {

			fill: #fff;
			stroke: transparent;
		}
	}

    .sub_one path {

    	stroke-dasharray: 5200;
    	stroke-dashoffset: 5200;
    	animation: offset 4s linear infinite, fill 4s linear infinite;
    }

    @keyframes fade_one {

    	40% {

    		opacity: 0;
    	}

    	60% {

    		opacity: 1;
    	}

    	100% {

    		opacity: 1;
    	}
    }

    .txt path:nth-of-type(1) {

    	opacity: 0;
    	animation: fade_one 4s linear infinite;
    }

    @keyframes fade_two {

    	41% {

    		opacity: 0;
    	}

    	61% {

    		opacity: 1;
    	}

    	100% {

    		opacity: 1;
    	}
    }

    .txt path:nth-of-type(2) {

    	opacity: 0;
    	animation: fade_two 4s linear infinite;
    }

    @keyframes fade_three {

    	42% {

    		opacity: 0;
    	}

    	62% {

    		opacity: 1;
    	}

    	100% {

    		opacity: 1;
    	}
    }

    .txt path:nth-of-type(3) {

    	opacity: 0;
    	animation: fade_three 4s linear infinite;
    }

    @keyframes fade_four {

    	43% {

    		opacity: 0;
    	}

    	63% {

    		opacity: 1;
    	}

    	100% {

    		opacity: 1;
    	}
    }

    .txt path:nth-of-type(4) {

    	opacity: 0;
    	animation: fade_four 4s linear infinite;
    }

    @keyframes fade_five {

    	44% {

    		opacity: 0;
    	}

    	64% {

    		opacity: 1;
    	}

    	100% {

    		opacity: 1;
    	}
    }

    .txt path:nth-of-type(5) {

    	opacity: 0;
    	animation: fade_five 4s linear infinite;
    }

    @keyframes fade_six {

    	45% {

    		opacity: 0;
    	}

    	65% {

    		opacity: 1;
    	}

    	100% {

    		opacity: 1;
    	}
    }

    .txt path:nth-of-type(6) {

    	opacity: 0;
    	animation: fade_six 4s linear infinite;
    }

    @keyframes fade_seven {

    	46% {

    		opacity: 0;
    	}

    	66% {

    		opacity: 1;
    	}

    	100% {

    		opacity: 1;
    	}
    }

    .txt path:nth-of-type(7) {

    	opacity: 0;
    	animation: fade_seven 4s linear infinite;
    }

    @keyframes fade_eight {

    	47% {

    		opacity: 0;
    	}

    	67% {

    		opacity: 1;
    	}

    	100% {

    		opacity: 1;
    	}
    }

    .txt path:nth-of-type(8) {

    	opacity: 0;
    	animation: fade_eight 4s linear infinite;
    }

    @keyframes fade_nine {

    	48% {

    		opacity: 0;
    	}

    	68% {

    		opacity: 1;
    	}

    	100% {

    		opacity: 1;
    	}
    }

    .txt path:nth-of-type(9) {

    	opacity: 0;
    	animation: fade_nine 4s linear infinite;
    }

    @keyframes fade_ten {

    	49% {

    		opacity: 0;
    	}

    	69% {

    		opacity: 1;
    	}

    	100% {

    		opacity: 1;
    	}
    }

    .txt path:nth-of-type(10) {

    	opacity: 0;
    	animation: fade_ten 4s linear infinite;
    }

    @keyframes fade_eleventh {

    	50% {

    		opacity: 0;
    	}

    	70% {

    		opacity: 1;
    	}

    	100% {

    		opacity: 1;
    	}
    }

    .txt path:nth-of-type(11) {

    	opacity: 0;
    	animation: fade_eleventh 4s linear infinite;
    }

    @keyframes fade_twelve {

    	51% {

    		opacity: 0;
    	}

    	71% {

    		opacity: 1;
    	}

    	100% {

    		opacity: 1;
    	}
    }

    .txt path:nth-of-type(12) {

    	opacity: 0;
    	animation: fade_twelve 4s linear infinite;
    }

    @keyframes fade_out {

    	70% {

    		opacity: 1;
    	}

    	90% {

    		opacity: 0;
    	}

    	100% {

    		opacity: 0;
    	}
    }

    .feat {

    	animation: fade_out 4s linear infinite;
    }
</style>
<g class="feat">
<g class="sub_one">
    <path class="st0" d="M600.2,436.4c-6.2,0-9.3,0-16.1-6.2c-12.4-9.3-12.4-25.3-6.2-34.6c12.4-19.2,28.4-34.6,40.8-47.6l3.1-3.1      l34.6-34.6l0,0h-22.3c-34.6,0-60-25.3-63-60l-6.2-76c0-16.1,6.2-34.6,16.1-47.6c12.4-12.4,28.4-19.2,44.5-19.2h129.2      c28.4,0,50.7,19.2,53.8,47.6v6.2L916,60c34.6-34.6,97.7-60,148.3-60h577.9c50.7,0,113.7,25.3,148.3,60l113.7,110.6l3.1-12.4      c3.1-25.3,28.4-47.6,53.8-47.6h129.2c16.1,0,34.6,6.2,44.5,19.2c12.4,12.4,19.2,28.4,16.1,47.6l-6.2,76c-3.1,34.6-28.4,60-63,60      h-22.3c-3.1,0-6.2,0-6.2,0s0,0-3.1,0l34.6,34.6l3.1,3.1c12.4,9.3,25.3,22.3,34.6,37.7c9.3,9.3,6.2,25.3-3.1,34.6      c-9.3,9.3-25.3,6.2-34.6-3.1c-9.3-12.4-19.2-22.3-28.4-31.5l-3.1-3.1l0,0l-50.7-60c-6.2-6.2-9.3-12.4-6.2-22.3      c0-12.4,12.4-44.5,72.9-44.5c3.1,0,6.2,0,6.2,0h16.1c6.2,0,12.4-6.2,12.4-12.4l6.2-76c0-3.1-3.1-6.2-3.1-9.3      c0,0-3.1-3.1-9.3-3.1h-129.2c-3.1,0-3.1,3.1-3.1,3.1l-3.1,28.4v3.1c-3.1,6.2-3.1,16.1-3.1,25.3s-6.2,19.2-16.1,22.3      c-9.3,3.1-19.2,3.1-28.4-6.2L1766.4,92.1c-25.3-25.3-76-47.6-113.7-47.6h-580.9c-34.6,0-85.3,22.3-113.7,47.6L819,231.1      c-6.2,6.2-19.2,9.3-25.3,6.2c-9.3-3.1-16.1-12.4-16.1-22.3c0-6.2-3.1-12.4-3.1-19.2v-3.1l-6.2-28.4c0-3.1-3.1-3.1-3.1-3.1H636      c-3.1,0-6.2,3.1-9.3,3.1c0,0-3.1,3.1-3.1,9.3l6.2,76c0,6.2,6.2,12.4,12.4,12.4h16.1c3.1,0,3.1,0,6.2,0c44.5,0,60,16.1,69.2,31.5      c3.1,9.3,3.1,22.3-6.2,28.4c0,0-78.4,80.1-90.2,95.2c-8.4,10.7-20.6,18-34.1,19C602.2,436.3,601.2,436.4,600.2,436.4z"/>
    <path class="st0" d="M830.7,297.3L988.3,196c44.5-28.4,94.6-47.6,148.3-56.9l259-40.8h-281.2c-47.6,0-91.5,19.2-123,50.7    L830.7,297.3z"/>
    <path class="st0" d="M2040.4,1121.8h-107.5c-60,0-110.6-47.6-113.7-107.5h-916c-3.1,60-53.8,107.5-113.7,107.5H681.8      c-63,0-113.7-50.7-113.7-110.6v-44.5c-31.5-6.2-53.8-31.5-53.8-66.1V793c0-12.4,12.4-25.3,25.3-25.3c12.4,0,25.3,12.4,25.3,25.3      v107.5c0,9.3,6.2,16.1,16.1,16.1h12.4c12.4,0,25.3,12.4,25.3,25.3v66.1c0,34.6,28.4,60,63,60h107.5c34.6,0,63-28.4,63-60v-19.2      c0-12.4,12.4-25.3,25.3-25.3h963c12.4,0,25.3,12.4,25.3,25.3v22.3c0,34.6,28.4,60,63,60h107.6c34.6,0,63-28.4,63-60V945      c0-12.4,12.4-25.3,25.3-25.3h6.2c12.4,0,22.3-9.3,22.3-22.3v-76v-3.1c0-9.3,0-16.1,0-22.3c0-12.4,12.4-25.3,25.3-25.3      c13,0,25.3,12.4,25.3,25.3c0,9.3,0,16.1-3.1,25.3v76c0,31.5-22.3,60-50.7,69.2v44.5C2154.1,1074.3,2103.4,1121.8,2040.4,1121.8z      "/>
</g>
<g class="txt">
	<path fill="#fff" d="M182.9,645.5v72.9H0V427.9h82.2v218.2h100.7V645.5z"/>
	<path fill="#fff" d="M445,604.1c0,6.2,0,12.4-3.1,19.2H275c6.2,25.3,22.3,37.7,44.5,37.7c19.2,0,31.5-6.2,40.8-22.3h76
				c-12.4,56.9-56.9,88.4-113.7,88.4c-69.2,0-119.9-50.7-119.9-119.9s50.7-119.9,119.9-119.9C395,487.3,445,541.1,445,604.1
				L445,604.1z M278.2,581.9h91.5c-6.2-22.3-22.3-34.6-47.6-34.6C299.8,547.3,284.3,560.2,278.2,581.9z"/>
	<path fill="#fff" d="M717,496.6V721h-60l-6.2-16.1c-19.2,12.4-40.8,22.3-66.1,22.3c-69.2,0-116.8-50.7-116.8-119.9
				s47.6-119.9,116.8-119.9c25.3,0,50.7,9.3,69.2,25.3l6.2-16.1C660.1,496.6,717,496.6,717,496.6z M644.1,607.2
				c0-28.4-22.3-50.7-50.7-50.7c-28.4,0-50.7,22.3-50.7,50.7s22.3,50.7,50.7,50.7C622.4,657.9,644.1,635.7,644.1,607.2z"/>
	<path fill="#fff" d="M853,727.1c-60,0-97.7-31.5-97.7-82.2h72.9c0,16.1,12.4,25.3,25.3,25.3c12.4,0,22.3-6.2,22.3-16.1
				c0-12.4-16.1-16.1-37.7-19.2c-34.6-6.2-82.2-16.1-82.2-69.2c0-44.5,37.7-72.9,94.6-72.9c56.9,0,94.6,31.5,94.6,76h-73.5
				c0-16.1-9.3-22.3-22.3-22.3c-13,0-22.3,6.2-22.3,16.1c0,12.4,16.1,16.1,37.7,19.2c34.6,6.2,82.2,12.4,82.2,69.2
				C950.6,695.6,912.9,727.1,853,727.1L853,727.1z"/>
	<path fill="#fff" d="M985.3,496.6h76V721h-76V496.6z M988.3,402h76v66.1h-76V402z"/>
	<path fill="#fff" d="M1332.6,581.9v136h-76V591.8c0-25.3-9.3-37.7-28.4-37.7c-25.3,0-37.7,16.1-37.7,44.5v119.9h-76v-225h53.8
				l9.3,22.3c16.1-19.2,40.8-28.4,69.2-28.4C1298,490.4,1332.6,525,1332.6,581.9z"/>
    <path fill="#fff" d="M1610.8,496.6v199c0,69.2-47.6,113.7-119.9,113.7c-63,0-107.5-31.5-116.8-85.3h76
				c6.2,16.1,25.3,22.3,44.5,22.3c25.3,0,47.6-16.1,47.6-44.5v-6.2c-16.1,9.3-37.7,16.1-56.9,16.1c-63,0-110.6-47.6-110.6-113.7
				c0-63,47.6-113.7,110.6-113.7c28.4,0,50.7,9.3,69.2,25.3l9.3-19.2L1610.8,496.6z M1490.9,648.6c28.4,0,47.6-19.2,47.6-47.6
				s-19.2-47.6-47.6-47.6c-28.4,0-47.6,19.2-47.6,47.6S1462.4,648.6,1490.9,648.6L1490.9,648.6z"/>
	<path fill="#fff" d="M1926.6,572.6c0,85.3-63,145.2-148.3,145.2h-116.8V427.4h116.8C1863.6,430.5,1926.6,490.4,1926.6,572.6z
				 M1844.4,572.6c0-44.5-28.4-72.9-72.9-72.9h-34.6v142.2h34.6C1816,645.5,1844.4,617.1,1844.4,572.6z"/>
	<path fill="#fff" d="M2194.9,604.1c0,6.2,0,12.4-3.1,19.2h-167.5c6.2,25.3,22.3,37.7,44.5,37.7c19.2,0,31.5-6.2,40.8-22.3h79.1
				c-16.1,56.9-60,88.4-116.8,88.4c-69.2,0-119.9-50.7-119.9-119.9s50.7-119.9,119.9-119.9C2144.2,487.3,2194.9,541.1,2194.9,604.1
				L2194.9,604.1z M2027.4,581.9h91.5c-6.2-22.3-22.3-34.6-47.6-34.6C2049.6,547.3,2033.6,560.2,2027.4,581.9z"/>
    <path fill="#fff" d="M2466.2,496.6V721h-60l-6.2-16.1c-19.2,16.1-40.8,22.3-66.1,22.3c-69.2,0-116.8-50.7-116.8-119.9
				s47.6-119.9,116.8-119.9c25.3,0,50.7,9.3,69.2,25.3l6.2-16.1C2409.3,496.6,2466.2,496.6,2466.2,496.6z M2393.9,607.2
				c0-28.4-22.3-50.7-50.7-50.7s-50.7,22.3-50.7,50.7s22.3,50.7,50.7,50.7S2393.9,635.7,2393.9,607.2z"/>
	<path fill="#fff" d="M2513.8,415h76v303.5h-76V415z"/>
	<path fill="#fff" d="M2725.2,727.1c-60,0-97.7-31.5-97.7-82.2h72.9c0,16.1,12.4,25.3,25.3,25.3c13,0,22.3-6.2,22.3-16.1
				c0-12.4-16.1-16.1-37.7-19.2c-34.6-6.2-82.2-16.1-82.2-69.2c0-44.5,37.7-72.9,94.6-72.9c56.9,0,94.6,31.5,94.6,76h-72.9
				c0-16.1-9.3-22.3-22.3-22.3c-12.4,0-22.3,6.2-22.3,16.1c0,12.4,16.1,16.1,37.7,19.2c34.6,6.2,82.2,12.4,82.2,69.2
				C2826.6,695.6,2785.8,727.1,2725.2,727.1L2725.2,727.1z"/>
</g>
</g>
</svg>