<svg 
 xmlns="http://www.w3.org/2000/svg"
 xmlns:xlink="http://www.w3.org/1999/xlink"
 width="21px" height="21px">
<path fill-rule="evenodd"  fill="rgb(166, 107, 223)"
 d="M19.875,0.110 L0.375,11.360 C0.101,11.516 -0.024,11.747 -0.000,12.051 C0.023,12.372 0.179,12.586 0.469,12.696 L6.000,14.957 L6.000,20.255 C6.000,20.411 6.042,20.553 6.129,20.682 C6.215,20.811 6.332,20.903 6.480,20.958 C6.550,20.989 6.640,21.005 6.750,21.005 C6.976,21.005 7.160,20.922 7.301,20.758 L10.793,16.927 L16.968,19.446 C17.070,19.485 17.164,19.505 17.250,19.505 C17.382,19.505 17.503,19.473 17.613,19.411 C17.824,19.286 17.949,19.110 17.988,18.883 L20.988,0.883 C21.035,0.571 20.929,0.321 20.671,0.133 C20.414,-0.046 20.148,-0.054 19.875,0.110 L19.875,0.110 ZM10.898,15.344 L16.500,6.004 L6.386,13.493 L2.449,11.887 L19.254,2.196 L16.664,17.700 L10.898,15.344 Z"/>
</svg>