<svg 
 xmlns="http://www.w3.org/2000/svg"
 xmlns:xlink="http://www.w3.org/1999/xlink"
 width="22px" height="21px">
<path fill-rule="evenodd"  fill="rgb(245, 188, 65)"
 d="M14.839,12.874 L14.990,13.746 L15.745,18.438 L11.743,16.218 L11.000,15.808 L11.000,3.082 L13.002,7.337 L13.380,8.130 L14.210,8.262 L18.690,8.949 L15.456,12.253 L14.839,12.874 ZM21.447,8.004 C21.371,7.762 21.145,7.610 20.767,7.548 L14.449,6.584 L11.617,0.571 C11.441,0.210 11.236,0.029 11.000,0.029 C10.757,0.029 10.552,0.210 10.384,0.571 L7.552,6.584 L1.234,7.548 C0.857,7.610 0.630,7.762 0.555,8.004 C0.479,8.247 0.575,8.509 0.844,8.791 L5.425,13.469 L4.343,20.076 C4.301,20.367 4.326,20.594 4.418,20.757 C4.511,20.920 4.653,21.001 4.846,21.001 C4.989,21.001 5.157,20.948 5.350,20.843 L11.000,17.724 L16.651,20.843 C16.845,20.948 17.012,21.001 17.155,21.001 C17.348,21.001 17.490,20.920 17.583,20.757 C17.675,20.594 17.700,20.367 17.658,20.076 L16.576,13.469 L21.145,8.791 C21.421,8.509 21.522,8.247 21.447,8.004 Z"/>
</svg>