<svg id="Layer_1" data-name="Layer 1" xmlns="http://www.w3.org/2000/svg" viewBox="0 0 2000 2000.13"><defs><style>.cls-1{fill:#604cd5;}</style></defs><title>SVG</title><path class="cls-1" d="M1000,130.51c390.63.11,725.69,274.46,799.75,659.81,87.5,455.32-212.69,869.13-637.43,954.1C1004.58,1776,850.83,1763.52,702,1700.6c-8.43-3.57-15.29-3.92-23.89,0q-182.8,83-365.92,165.38c-30.61,13.83-67.33-13.36-69.91-51.92-.73-11,2.15-21.16,5.55-31.46,35.34-107.26,70.34-214.62,106-321.78,3.6-10.85,2.34-18.16-4.76-27.36q-144.29-187-161.69-422.79c-30.31-410.29,235-769.32,636-860.91C881.48,136.47,940.45,130.51,1000,130.51ZM774.67,511c-59.48,0-97.69,11.69-124.94,40.53-69.79,73.86-97.54,161-79.39,261.88,13.35,74.17,51.06,138.19,92.57,198,109.26,157.38,248.49,278.79,434.61,339.09,68.28,22.12,136.85,41.69,209.15,23,139.59-36.14,185.65-120.16,181.14-246-1.17-32.71-15.63-56.92-47.06-72.31q-81.45-39.86-164.35-76.41c-40.89-18-86.76-4.89-111.05,28.64-11.91,16.44-24.13,32.71-35.07,49.79-7.1,11.1-14,12.91-26.4,7.77-91.81-38-159.41-103.29-212.53-185.49-5.13-7.93-4.51-13.76,3.12-18.28,16.14-9.54,26-25.23,36.06-39.66,19.86-28.43,31.42-60.69,13.54-93.93-26.28-48.88-43.48-101.69-68.83-151C852.34,532.1,821.64,503.93,774.67,511Z"/></svg>