<?xml version="1.0" encoding="utf-8"?>
<!-- Generator: Adobe Illustrator 23.0.3, SVG Export Plug-In . SVG Version: 6.00 Build 0)  -->
<svg version="1.1" id="Layer_1" xmlns="http://www.w3.org/2000/svg" xmlns:xlink="http://www.w3.org/1999/xlink" x="0px" y="0px"
	 viewBox="0 0 2000 2000" style="enable-background:new 0 0 2000 2000;" xml:space="preserve">
<style type="text/css">
	.st0{fill:#ffffff;}
</style>
<g> 
	<path class="st0" d="M6187.4,316.3c-16.5-30.6-40.7-56.5-69.9-74.7c-31.2-19.4-67.4-29.7-104.9-29.7h-1556
		c-37.4,0-73.7,10.3-104.9,29.7c-29.2,18.2-53.4,44-69.9,74.7c-16.5,30.6-24.7,65-23.9,99.5c0.9,36.7,12.3,72.7,33,103.9l778,1179.3
		c36.8,55.8,98.8,89.2,165.7,89.2c66.9,0,128.8-33.3,165.7-89.2l778-1179.3c20.6-31.2,32-67.2,33-103.9
		C6212.2,381.3,6203.9,346.9,6187.4,316.3z M6061.5,442.6l-778,1179.3c-15.6,23.7-39.3,26.3-48.8,26.3s-33.2-2.6-48.8-26.3
		l-778-1179.3c-17.4-26.3-7.7-50.7-2.7-59.9c5-9.2,20-30.8,51.5-30.8h1556c31.5,0,46.5,21.5,51.5,30.8
		C6069.1,391.9,6078.8,416.2,6061.5,442.6z"/>
	<path class="st0" d="M5234.2,1099c-23.7,0-44,8.3-60.3,24.8c-16.4,16.4-24.7,36.6-24.7,60c0,26.7,8.8,47.9,26.2,63
		c17,14.8,37.1,22.3,59.8,22.3c22.4,0,42.3-7.6,59.2-22.6c17.1-15.3,25.8-36.4,25.8-62.7c0-23.4-8.5-43.6-25.3-60.1
		C5278.2,1107.3,5257.8,1099,5234.2,1099z"/>
	<path class="st0" d="M5238.2,491c-26.4,0-48.1,8.9-64.6,26.4c-16.2,17.4-24.4,41.5-24.4,71.6c0,20.5,1.5,54.5,4.5,101.2l16,239.7
		l0,0.3c3.1,32.5,8.3,56.2,15.9,72.5c8.6,18.7,24.7,28.6,46.6,28.6c21.4,0,37.7-10.1,47-29.1c8.3-17,13.5-40.2,16-71.1l21.5-246.6
		c2.4-22.9,3.5-45.8,3.5-68c0-39.2-5.1-68.7-15.5-90.2C5293.2,502.9,5270.8,491,5238.2,491z"/>
</g>
<g>
	<g>
		<g>
			<path class="st0" d="M1000.1,1948.6c-17.4,0-33.7-8.5-43.7-22.9l-502-724.9C358,1071.7,309.5,894.3,321.6,714
				c12.1-181,84-349.9,197.5-463.3c128.5-128.5,299.3-199.3,481-199.3s352.6,70.8,481.1,199.3l0,0c0,0,0,0,0,0
				c113.5,113.4,185.4,282.4,197.4,463.4c11.9,180.5-36.8,358.2-133.6,487.7l-501.2,723.9C1033.8,1940,1017.5,1948.6,1000.1,1948.6z
				 M1000.1,198.1c-145.8,0-282.9,56.8-386,159.9c-192,191.9-216,552.7-51.4,772.1c0.4,0.5,0.8,1,1.1,1.6l436.3,630l435.5-629
				c0.4-0.5,0.7-1,1.1-1.6c165-219.9,141.3-581.1-50.7-773.1c0,0,0,0,0,0C1282.9,254.9,1145.9,198.1,1000.1,198.1z"/>
		</g>
	</g>
	<path class="st0" d="M1005.9,993.1c-147.3,0-267.2-119.9-267.2-267.2c0-147.3,119.9-267.2,267.2-267.2
		c147.3,0,267.2,119.9,267.2,267.2C1273,873.3,1153.1,993.1,1005.9,993.1z"/>
</g>
</svg>
