<svg id="Layer_1" data-name="Layer 1" xmlns="http://www.w3.org/2000/svg" viewBox="0 0 2000 2000"><defs><style>.cls-1{fill:#000;}</style></defs><title>SVG</title><path class="cls-1" d="M1899.88,820.66a91.41,91.41,0,0,0-87.83-65.53h-95.77a80,80,0,0,0-80,76.69l-2.6,62.44h-75.37V841.12A82.13,82.13,0,0,0,1476.23,759h-99.52a174.88,174.88,0,0,0-174.88-174.89h-171V509.43h207.74a78.67,78.67,0,1,0,0-157.34H577.66a78.67,78.67,0,1,0,0,157.34H798.92v74.68H591.19l-99.52,99.52H394.08A82.13,82.13,0,0,0,312,765.76V974.05H210.56V683.63a78.67,78.67,0,0,0-157.34,0v738.19a78.67,78.67,0,0,0,157.34,0V1131.39H312v208.3a82.13,82.13,0,0,0,82.13,82.12H551.57l226.09,226.1h698.57a82.13,82.13,0,0,0,82.13-82.13v-115h75.37l2.6,62.44a80,80,0,0,0,80,76.7h95.77a91.41,91.41,0,0,0,87.83-65.54c20.31-69.18,46.9-190.58,46.9-351.87S1920.19,889.85,1899.88,820.66Z"/></svg>