<svg id="Layer_1" data-name="Layer 1" xmlns="http://www.w3.org/2000/svg" viewBox="0 0 2000 2000.13"><defs><style>.cls-1{fill:#604cd5;}</style></defs><title>SVG</title><path class="cls-1" d="M947.27,765.58c-39.55-124-22.15-238.55,67.05-336.1,65.62-71.76,135.35-140,206.2-206.68C1346,104.71,1546,107.88,1669.75,227.7q51.7,50.06,101.81,101.77c122.65,126.51,123.51,328.8,1,455.38-64.35,66.49-129.08,132.76-196.52,196.07-93.74,88-204.46,111.05-327.69,75.88a111.86,111.86,0,0,1-11.58-4.18c-1.13-.46-2-1.66-4.42-3.86,5-5.35,9.72-10.83,14.83-16q186.09-186.18,372.23-372.3c64.59-64.63,64.34-140.83-.54-205.83q-37.05-37.11-74.17-74.16c-64.65-64.54-140.79-64.31-205.84.72q-185.45,185.36-370.66,371c-5.2,5.22-8.21,12.64-12.24,19Z"/><path class="cls-1" d="M1043.27,1227.8c23.23,42.67,29.37,81.67,29,121.32-.77,88-30.47,165.18-92.32,228.4q-95.62,97.74-193.34,193.42c-127.83,124.54-330.49,124.07-458.34-.39-33.88-33-67.43-66.35-100.28-100.36-122.42-126.73-122.88-328.86-.25-455.34,63.93-65.93,128.32-131.54,195-194.62,93.48-88.38,204-111.81,327.32-77.29,5.67,1.59,11,4.3,22,13.74-6.59,3.71-14.42,6.18-19.59,11.33q-185.75,185-371,370.59c-65.69,65.72-65.68,141.62,0,207.34,26.64,26.67,53.11,53.53,80,79.93,56.83,55.77,136.19,56,192.67-.24Q843.58,1437,1032.1,1247.49C1037.23,1242.33,1039.61,1234.43,1043.27,1227.8Z"/><path class="cls-1" d="M1387.44,745.62c.33,34.7-12,64.46-36.32,88.83q-256.48,256.86-513.43,513.25c-52.16,51.89-133.07,49.9-184.47-2.29-50.89-51.66-52.26-131.4-.91-183Q907.6,905.8,1164.15,650.47c40.71-40.56,89.57-48.29,142.19-27.57C1356.17,642.53,1387.55,691.71,1387.44,745.62Z"/></svg>