<svg id="Layer_1" data-name="Layer 1" xmlns="http://www.w3.org/2000/svg" viewBox="0 0 2000 2000"><defs><style>.cls-1{fill:#00000;}</style></defs><title>SVG</title><path class="cls-1" d="M1902.16,141.65a27.94,27.94,0,0,0-8.06-44.56h0a27.93,27.93,0,0,0-31.36,5l-314,298.74a28,28,0,0,0-4.36,35.19l9.74,15.4c-40.57,109.5-30.35,236.19-19.12,374.81,6.28,77.57,12.78,157.78,12.78,247.29,0,83.17-22.31,146.27-66.31,187.54-73.61,69.06-123.32,63-126.07,62.86-1.76-.12-3.5-.09-5.25-.09V396.86A170.45,170.45,0,0,0,1179.73,226.4H453.51A170.45,170.45,0,0,0,283.06,396.86V1755.31H165.21a75.18,75.18,0,0,0,0,150.36H1468a75.18,75.18,0,0,0,0-150.36H1350.18V1474.14c3.34.13,8,.27,13.89.27,49.92,0,118.62-9.36,219-102.53,76.37-70.88,115.09-171.28,115.09-298.41,0-95.59-7.05-182.63-13.27-259.43-6.2-76.49-10.66-139.66-9.1-193.14,12.76.38,25.59-7.73,28.46-22.57l27.54-142.2a27.93,27.93,0,0,1,8.71-15.43L1826.59,363a28,28,0,0,0,7.11-31.41l-27.29-66.13a27.94,27.94,0,0,1,5.68-30ZM571.93,427.57H1061.3A100.64,100.64,0,0,1,1162,528.21V806.82A100.64,100.64,0,0,1,1061.3,907.46H571.93A100.64,100.64,0,0,1,471.29,806.82V528.21A100.64,100.64,0,0,1,571.93,427.57Z"/></svg>