<svg id="Layer_1" data-name="Layer 1" xmlns="http://www.w3.org/2000/svg" viewBox="0 0 2000 2000.13"><defs><style>.cls-1{fill:#604cd5;}</style></defs><title>SVG</title><path class="cls-1" d="M1787.85,493.51c-93.84-133.58-221.17-224-371.06-282.71-258.5-101.16-520.92-106-783.89-18.58-149.44,49.7-280.53,130.13-383,252.1C168.66,540.91,118.82,651,113,778.49c-7.38,161.08,53.12,296.5,160.93,412.44C386.53,1312,527.2,1386.63,684.4,1432.54c22,6.43,44.25,12.07,69.13,18.82-40.36,99.72-79.64,195.88-118,292.41a141.34,141.34,0,0,0-9.63,45.34c-1.2,28.05.25,57.84,28.21,73.37,28.46,15.81,56.2,2.74,79.62-13.84,33.49-23.7,66.86-48.3,96.64-76.37,102.27-96.4,202.8-194.64,304.53-291.6,8-7.58,19.6-13,30.44-15.5,45.15-10.31,91.34-16.61,135.9-28.88,182.42-50.22,341-139.15,462.22-288.29C1919.5,956,1929.37,695,1787.85,493.51ZM694.34,965.65q-20.49,31.7-60,49.64t-93.61,18q-64.89,0-107.07-24.53A142.39,142.39,0,0,1,385.1,961.6q-18.71-29.45-18.7-57.27a38.21,38.21,0,0,1,11.22-27.66q11.22-11.52,28.56-11.52,14.06,0,23.77,9t16.6,26.61q8.37,20.94,18.1,35T492,958.91Q509.67,968,538.37,968q39.48,0,64.16-18.39t24.67-45.9q0-21.84-13.31-35.45T579.5,847.51q-21.09-7.18-56.38-15.26Q475.86,821.2,444,806.38T393.47,766q-18.69-25.57-18.69-63.56,0-36.18,19.74-64.3t57.12-43.21q37.38-15.11,87.93-15.11,40.38,0,69.83,10t48.9,26.62q19.44,16.59,28.42,34.84t9,35.59q0,15.86-11.22,28.56a35.76,35.76,0,0,1-28,12.72q-15.25,0-23.18-7.63t-17.2-25q-12-24.83-28.71-38.73t-53.84-13.91q-34.38,0-55.47,15.1T457,694.38q0,13.17,7.18,22.73t19.74,16.45a132,132,0,0,0,25.42,10.76q12.85,3.9,42.47,11.37A667.66,667.66,0,0,1,619,774.83Q649,785.3,670.12,800.25A104.61,104.61,0,0,1,703,838.09q11.82,22.88,11.82,56.07Q714.83,933.94,694.34,965.65ZM1209.21,983q0,25.13-11.22,37.68t-30.06,12.57q-17.64,0-29-12.57T1127.56,983V680.32l-70.29,279.34q-6.87,27.23-11.21,39.93t-16,23.18q-11.67,10.45-32.3,10.47-15.56,0-26.32-6.73a48.51,48.51,0,0,1-16.75-17.2,97.88,97.88,0,0,1-9.42-23.18q-3.45-12.71-7-26.47L868,680.32V983q0,25.13-11.22,37.68T827,1033.24q-17.94,0-29.31-12.42T786.31,983V636.06q0-28.71,15-38.73t40.38-10h27.51q24.83,0,36,4.49T921.79,608q5.38,11.65,12.26,38l63.71,240.16,63.7-240.16q6.88-26.32,12.26-38t16.6-16.15q11.22-4.5,36-4.49h27.52q25.41,0,40.37,10t15,38.73Zm403.9-17.34q-20.49,31.7-60,49.64t-93.61,18q-64.89,0-107.07-24.53a142.51,142.51,0,0,1-48.6-47.11q-18.69-29.45-18.69-57.27a38.21,38.21,0,0,1,11.22-27.66q11.2-11.52,28.56-11.52,14.05,0,23.77,9t16.6,26.61q8.37,20.94,18.1,35t27.36,23.18q17.65,9.14,46.36,9.12,39.48,0,64.15-18.39t24.68-45.9q0-21.84-13.31-35.45t-34.4-20.78q-21.08-7.18-56.37-15.26-47.27-11.06-79.11-25.87T1312.24,766q-18.71-25.57-18.69-63.56,0-36.18,19.73-64.3t57.13-43.21q37.38-15.11,87.93-15.11,40.37,0,69.83,10t48.9,26.62q19.44,16.59,28.41,34.84t9,35.59q0,15.86-11.22,28.56a35.77,35.77,0,0,1-28,12.72q-15.24,0-23.17-7.63t-17.2-25q-12-24.83-28.71-38.73t-53.84-13.91q-34.39,0-55.47,15.1t-21.09,36.34q0,13.17,7.18,22.73t19.74,16.45a131.73,131.73,0,0,0,25.42,10.76q12.86,3.9,42.47,11.37a668.42,668.42,0,0,1,67.14,19.14q30.06,10.47,51.14,25.42a104.63,104.63,0,0,1,32.9,37.84q11.82,22.88,11.82,56.07Q1633.6,933.94,1613.11,965.65Z"/></svg>