<svg id="Layer_1" data-name="Layer 1" xmlns="http://www.w3.org/2000/svg" viewBox="0 0 2000 2000.13"><defs><style>.cls-1{fill:#000;}</style></defs><title>SVG</title><path class="cls-1" d="M1667.31,332.75C1489.07,154.5,1252.08,56.34,1000,56.34S510.93,154.5,332.69,332.75,56.28,748,56.28,1000.06s98.16,489.07,276.41,667.32S747.92,1943.79,1000,1943.79s489.07-98.17,667.31-276.41,276.41-415.24,276.41-667.32S1845.56,511,1667.31,332.75ZM1000,136.39c476.23,0,863.67,387.44,863.67,863.67a859.78,859.78,0,0,1-45.16,275.78c-1.64,4.84-1637,0-1637,0a859.78,859.78,0,0,1-45.16-275.78C136.33,523.83,523.77,136.39,1000,136.39ZM550.53,1631.05v-254.4a24.07,24.07,0,0,1,24-24H680.86a24.08,24.08,0,0,1,24,24v254.4a24.09,24.09,0,0,1-24,24H574.54A24.08,24.08,0,0,1,550.53,1631.05Zm248.2,0v-254.4a24.08,24.08,0,0,1,24-24H929.06a24.08,24.08,0,0,1,24,24v254.4a24.09,24.09,0,0,1-24,24H822.74A24.09,24.09,0,0,1,798.73,1631.05Zm248.2,0v-254.4a24.08,24.08,0,0,1,24-24h106.32a24.08,24.08,0,0,1,24,24v254.4a24.09,24.09,0,0,1-24,24H1070.94A24.09,24.09,0,0,1,1046.93,1631.05Zm248.2,0v-254.4a24.08,24.08,0,0,1,24-24h106.32a24.07,24.07,0,0,1,24,24v254.4a24.08,24.08,0,0,1-24,24H1319.14A24.09,24.09,0,0,1,1295.13,1631.05Z"/><path class="cls-1" d="M1000,527.76a40,40,0,0,0,40-40V281.38a40,40,0,1,0-80.06,0V487.73A40,40,0,0,0,1000,527.76Z"/><path class="cls-1" d="M1472.31,1000.06a40,40,0,0,0,40,40h206.36a40,40,0,0,0,0-80H1512.33A40,40,0,0,0,1472.31,1000.06Z"/><path class="cls-1" d="M1448.2,791.83a39.8,39.8,0,0,0,19.36-5l180.51-100a40,40,0,1,0-38.79-70l-180.51,100a40,40,0,0,0,19.43,75Z"/><path class="cls-1" d="M1241.59,594.22a40,40,0,0,0,54.86-13.92L1402,403A40,40,0,1,0,1333.22,362L1227.67,539.35A40,40,0,0,0,1241.59,594.22Z"/><path class="cls-1" d="M722.45,567.57A40,40,0,1,0,793,529.71L695.4,347.89a40,40,0,0,0-70.54,37.85Z"/><path class="cls-1" d="M361.12,668.48l177.59,105.1a40,40,0,1,0,40.77-68.89L401.89,599.59a40,40,0,0,0-40.77,68.89Z"/><path class="cls-1" d="M487.67,1040.09a40,40,0,0,0,0-80H281.31a40,40,0,0,0,0,80Z"/><path class="cls-1" d="M894.26,968.76a110.28,110.28,0,1,0,81-76.17S751.39,676.09,712,634.23c-69.48-73.85-149-98.62-149-98.62s19.87,80.84,89.35,154.69C691.79,732.16,894.26,968.76,894.26,968.76Z"/></svg>