<svg id="Layer_1" data-name="Layer 1" xmlns="http://www.w3.org/2000/svg" viewBox="0 0 2000 2000.13"><defs><style>.cls-1{fill:#000;}</style></defs><title>SVG</title><path class="cls-1" d="M1850.59,613a292.69,292.69,0,0,0-29.66,14.93Q1690.69,705.23,1560.72,783c-8.68,5.2-15.59,9-26.43,2.84-64-36.31-128.73-71.47-192.7-107.89-5.69-3.24-11.08-12.66-11.14-19.27q-1.12-111.54.18-223.08c.09-7.13,6.22-16.93,12.46-20.77,32.7-20.18,66.35-38.79,99.64-58q104.94-60.64,209.79-121.43c24-14,30.57-37.09,15.68-55.16-5.65-6.86-13.32-12.61-21.09-17.07C1543.83,104,1432,87.37,1316.42,106.64c-273.66,45.62-456.61,307.61-409.07,581.19,41.29,237.61,250.17,413.58,491.81,416.27,31.06-3.36,62.79-3.76,93.08-10.56C1694.87,1048,1827.86,926.3,1887,726.42c7.86-26.56,11.93-54.88,13.15-82.59C1901.38,614.93,1876.94,601.16,1850.59,613Z"/><path class="cls-1" d="M863.47,808.51c-5.93,8.61-10.68,18.38-17.94,25.66C732.57,947.42,376,1304,166.31,1513.72c-87.8,87.8-88.72,229.83-2.1,318.78h0c88.1,90.47,233.08,91.64,322.61,2.59,204-202.87,544.3-541.53,687.82-685.06,5-5,9.66-10.2,15.83-16.74C1039.61,1069.24,933.51,962.51,863.47,808.51Z"/></svg>