<svg id="Layer_1" data-name="Layer 1" xmlns="http://www.w3.org/2000/svg" viewBox="0 0 2000 2000.13"><defs><style>.cls-1{fill:#000;}</style></defs><title>SVG</title><rect class="cls-1" x="708.56" y="818.22" width="227.28" height="227.28"/><rect class="cls-1" x="352.94" y="1117.7" width="227.28" height="227.28"/><rect class="cls-1" x="708.56" y="1117.7" width="227.28" height="227.28"/><rect class="cls-1" x="352.94" y="1417.18" width="227.28" height="227.28"/><rect class="cls-1" x="708.56" y="1417.18" width="227.28" height="227.28"/><path class="cls-1" d="M466.58,534.08a82.3,82.3,0,0,0,82.3-82.3V187.36a82.3,82.3,0,0,0-164.6,0V451.78A82.29,82.29,0,0,0,466.58,534.08Z"/><rect class="cls-1" x="1064.17" y="818.22" width="227.28" height="227.28"/><rect class="cls-1" x="1419.78" y="1117.7" width="227.28" height="227.28"/><rect class="cls-1" x="1064.17" y="1117.7" width="227.28" height="227.28"/><rect class="cls-1" x="1419.78" y="818.22" width="227.28" height="227.28"/><rect class="cls-1" x="1064.17" y="1417.18" width="227.28" height="227.28"/><path class="cls-1" d="M1533.42,534.08a82.29,82.29,0,0,0,82.3-82.3V187.36a82.3,82.3,0,1,0-164.6,0V451.78A82.3,82.3,0,0,0,1533.42,534.08Z"/><path class="cls-1" d="M1718.59,304.76H1698v147c0,90.76-73.84,164.6-164.6,164.6s-164.6-73.84-164.6-164.6v-147h-20.57V304H651.75v.81H631.18v147c0,90.76-73.84,164.6-164.6,164.6S302,542.54,302,451.78v-147H281.41C175.43,313,91.66,401.66,91.66,509.7V1689.32c0,113.44,92.3,205.74,205.75,205.74H1702.59c113.45,0,205.75-92.3,205.75-205.74V509.7C1908.34,401.66,1824.57,313,1718.59,304.76Zm25.15,1384.56c0,22.3-18.84,41.15-41.15,41.15H297.41c-22.31,0-41.15-18.85-41.15-41.15V727.64H1743.74Z"/></svg>