<?xml version="1.0" encoding="utf-8"?>
<!-- Generator: Adobe Illustrator 23.0.3, SVG Export Plug-In . SVG Version: 6.00 Build 0)  -->
<svg version="1.1" id="Layer_1" xmlns="http://www.w3.org/2000/svg" xmlns:xlink="http://www.w3.org/1999/xlink" x="0px" y="0px"
	 viewBox="0 0 2000 2000" style="enable-background:new 0 0 2000 2000;" xml:space="preserve">
<style type="text/css">
	.st0{fill:#000;}
</style>
<title>SVG</title>
<g>
	<path class="st0" d="M922.3,969.4V1367c0,42.9,34.8,77.7,77.7,77.7c42.9,0,77.7-34.8,77.7-77.7V969.4
		c101.6-15.8,184-89.2,271.9-428.4c66.2-255.6-66.7-445.7-349.6-446.6c-282.9,0.9-415.8,191-349.6,446.6
		C738.3,880.2,820.7,953.6,922.3,969.4z M770.7,276.6c0-20.3,16.4-36.7,36.7-36.7c20.3,0,36.7,16.4,36.7,36.7v159.7h119.2V276.6
		c0-20.3,16.4-36.7,36.7-36.7s36.7,16.4,36.7,36.7v159.7h119.2V276.6c0-20.3,16.4-36.7,36.7-36.7s36.7,16.4,36.7,36.7v392.8
		c0,20.3-16.4,36.7-36.7,36.7s-36.7-16.4-36.7-36.7V509.6h-119.2v159.7c0,20.3-16.4,36.7-36.7,36.7s-36.7-16.4-36.7-36.7V509.6
		H844.1v159.7c0,20.3-16.4,36.7-36.7,36.7c-20.3,0-36.7-16.4-36.7-36.7V276.6z"/>
	<path class="st0" d="M1204.9,1011.6c0.4,5.2,0.8,10.3,0.8,15.6v517.5c0,113.4-92.3,205.7-205.7,205.7s-205.7-92.3-205.7-205.7
		v-517.5c0-5.3,0.4-10.4,0.8-15.6c-38.5-30.9-75.4-79.9-111.8-157.5c-28.2,51.4-44.3,110.4-44.3,173.1v517.5
		c0,199.1,162,361.1,361.1,361.1s361.1-162,361.1-361.1v-517.5c0-62.7-16.1-121.7-44.3-173.1
		C1280.3,931.6,1243.4,980.6,1204.9,1011.6z"/>
</g>
</svg>
