<svg id="Layer_1" data-name="Layer 1" xmlns="http://www.w3.org/2000/svg" viewBox="0 0 2000 2000"><defs><style>.cls-1{fill:#000;}</style></defs><title>SVG</title><path class="cls-1" d="M1127.89,969.41V1367a77.68,77.68,0,0,0,155.36,0V969.41c101.63-15.83,184-89.18,271.92-428.44,66.22-255.64-66.73-445.69-349.6-446.64C922.7,95.28,789.75,285.33,856,541,943.86,880.23,1026.26,953.58,1127.89,969.41ZM978.17,279.59c36.27-47,95.78-76,173.85-85.08A48.55,48.55,0,0,1,1163.36,291c-50.89,5.9-88.63,22.42-108.31,47.93-18.88,24.49-25.48,63.95-19.31,111.56a48.54,48.54,0,1,1-96.3,12.32C929.93,388.77,943.16,325,978.17,279.59Z"/><path class="cls-1" d="M1410.48,1011.56c.39,5.16.79,10.31.79,15.57v517.49c0,113.42-92.28,205.69-205.7,205.69s-205.7-92.27-205.7-205.69V1027.13c0-5.26.4-10.41.79-15.57C962.14,980.64,925.28,931.63,888.82,854a358.78,358.78,0,0,0-44.3,173.1v517.49c0,199.08,162,361.05,361,361.05s361-162,361-361.05V1027.13a358.78,358.78,0,0,0-44.3-173.1C1485.86,931.63,1449,980.64,1410.48,1011.56Z"/><path class="cls-1" d="M669.74,820.11H505.47a77.38,77.38,0,0,0,0,154.76H669.74a77.38,77.38,0,0,0,0-154.76Z"/><path class="cls-1" d="M669.74,1208.49H505.47a77.38,77.38,0,0,0,0,154.76H669.74a77.38,77.38,0,0,0,0-154.76Z"/><path class="cls-1" d="M669.74,1596.87H505.47a77.39,77.39,0,0,0,0,154.77H669.74a77.39,77.39,0,0,0,0-154.77Z"/></svg>