<svg id="Layer_1" data-name="Layer 1" xmlns="http://www.w3.org/2000/svg" viewBox="0 0 2000 2000.13"><defs><style>.cls-1{fill:#604cd5;}</style></defs><title>SVG</title><path class="cls-1" d="M419.15,1890.45c0-70.22,0-136.09,0-202,0-60.49-.2-121,.46-181.46.12-11.29-5.12-17.54-12.51-24.5-114-107.35-195.44-235-231.5-388.14-58.06-246.55-6.38-470.42,150.94-668C463.32,254.64,644.42,154.61,860,120.76c363.21-57,726.29,108.69,895.38,435.22,129.82,250.68,122.38,504.7-21.77,747.93-129.09,217.82-325.72,344.57-573.2,392.9-126.09,24.63-251.63,18.27-376.09-12.17-12.44-3-22.14-1.16-33,5.43Q600,1782.16,448.11,1873.37C439.87,1878.34,431.53,1883.16,419.15,1890.45ZM478.34,1168c8-.56,14.08-5.59,20.68-9.25q174.79-97,349.36-194.45c12.63-7.09,19.86-6.22,30.07,4.16,63.86,64.86,128.84,128.62,192.52,193.64,12.65,12.92,19,13.94,31.72-.25,91-101.28,183.15-201.55,274.6-302.43,48-53,95.33-106.49,143-159.77l3-2.38c-.51-.46-1.32-1.39-1.48-1.3a28,28,0,0,0-2.94,2.4c-7.36.24-12.88,4.8-18.88,8.14-116.54,64.68-233.2,129.14-349.37,194.47-14.07,7.91-22.06,6.88-33.4-4.66-63.28-64.45-127.85-127.64-191.07-192.17-12.61-12.87-18.92-14-31.72.22-91,101.29-183.16,201.56-274.62,302.45-48,52.95-95.37,106.49-143,159.77l-3,2.43C475.9,1171.48,477.2,1170.13,478.34,1168Z"/></svg>